<?xml version="1.0" encoding="UTF-8"?>
<svg version="1.1" xmlns="http://www.w3.org/2000/svg" width="512" height="512">
<path d="M0 0 C0.98839696 -0.00397774 0.98839696 -0.00397774 1.99676153 -0.00803584 C4.22032044 -0.01573824 6.44382422 -0.01628837 8.66739559 -0.01688576 C10.27153106 -0.02089977 11.87566551 -0.02533789 13.47979873 -0.03016531 C17.90032761 -0.04214365 22.32084556 -0.04778219 26.74138749 -0.05234647 C31.504359 -0.05829784 36.26731742 -0.0699089 41.03028011 -0.08063698 C52.53974092 -0.10517246 64.04920606 -0.11979023 75.55868497 -0.13269705 C78.8089288 -0.13640828 82.05917219 -0.14038157 85.30941558 -0.14444971 C105.48805424 -0.16968656 125.66669358 -0.19174219 145.84534454 -0.20417786 C150.52056093 -0.20710761 155.19577729 -0.21006927 159.87099361 -0.21308327 C161.61402384 -0.21420234 161.61402384 -0.21420234 163.3922668 -0.21534403 C182.21589167 -0.22799736 201.03942208 -0.26121937 219.86300278 -0.3028851 C239.18409871 -0.34530182 258.50514627 -0.36887263 277.82628864 -0.37409842 C288.67625703 -0.37751293 299.52607782 -0.38927285 310.3760004 -0.42220116 C319.61663301 -0.45019923 328.85708777 -0.46120205 338.09775949 -0.4500057 C342.81195665 -0.44481837 347.52578136 -0.44771069 352.23992443 -0.47247124 C356.55880784 -0.49496616 360.87705133 -0.49422212 365.19594597 -0.47526737 C366.75525207 -0.47246768 368.31460159 -0.47806424 369.8738379 -0.4930803 C379.7869715 -0.58268173 388.14596569 0.08323712 395.70282656 7.12682688 C402.63412411 14.37533114 404.01679987 21.05981377 403.97206783 30.78227806 C403.98236271 32.35425201 403.98236271 32.35425201 403.99286556 33.95798302 C404.01110396 37.40712247 404.00730163 40.85580602 404.00160885 44.30498314 C404.00617061 46.70678416 404.01147617 49.10858388 404.01749325 51.5103817 C404.02641745 56.53628924 404.02400725 61.56203781 404.01406002 66.58794212 C404.00254532 73.03444048 404.02282417 79.48039312 404.05197716 85.9268198 C404.07029909 90.8827215 404.07005512 95.83849128 404.06433964 100.79441833 C404.06418607 103.17191715 404.07025937 105.5494247 404.08263111 107.92689133 C404.09747075 111.24492436 404.08691663 114.56193383 404.06972408 117.87993431 C404.07939205 118.86443565 404.08906002 119.848937 404.09902096 120.86327171 C404.02705533 127.47950333 404.02705533 127.47950333 401.72415829 130.77808189 C399.5680151 132.13701439 399.5680151 132.13701439 396.5680151 132.13701439 C396.5680151 139.39701439 396.5680151 146.65701439 396.5680151 154.13701439 C398.2180151 154.79701439 399.8680151 155.45701439 401.5680151 156.13701439 C404.26140385 158.83040314 403.81820778 160.91711085 403.8494882 164.57775736 C403.84707311 165.49115617 403.84465803 166.40455499 403.84216976 167.34563255 C403.84740644 168.31217121 403.85264312 169.27870986 403.85803849 170.27453756 C403.87311682 173.53407616 403.87374536 176.79345885 403.87441158 180.05303001 C403.88202809 182.38190033 403.8904547 184.71076812 403.89963436 187.0396328 C403.92164331 193.38296351 403.93038747 199.726246 403.93546081 206.0696106 C403.93909849 210.03198002 403.94533563 213.9943367 403.9524622 217.95670128 C403.97193032 228.9301967 403.98843437 239.90368152 403.99133873 250.87719536 C403.9915263 251.57990097 403.99171387 252.28260659 403.99190712 253.00660631 C403.99227337 254.43116347 403.99263707 255.85572063 403.99299823 257.28027779 C403.99318105 257.98742469 403.99336386 258.6945716 403.99355221 259.4231472 C403.99382303 260.48516551 403.99382303 260.48516551 403.99409933 261.56863874 C403.99763679 273.02699192 404.02462838 284.48515666 404.0620501 295.94344455 C404.10017514 307.71151537 404.11949654 319.47949285 404.11979824 331.24762678 C404.12059127 337.85325573 404.12934147 344.45864201 404.15779591 351.06421471 C404.18398074 357.28260797 404.18617885 363.50055754 404.17014027 369.71898079 C404.16832582 371.99817307 404.17501594 374.27739085 404.19095898 376.55652809 C404.21144275 379.67571686 404.20085289 382.79335688 404.18274593 385.91252708 C404.1959459 386.80808012 404.20914587 387.70363317 404.22274584 388.62632418 C404.1194242 396.45465308 401.31085444 402.60449002 396.53285885 408.75810814 C386.66650882 417.59790152 375.09138072 417.57993948 362.3961401 417.42998314 C360.97839977 417.42437153 359.56065352 417.42010886 358.14290524 417.41711998 C354.45379053 417.40579401 350.76504351 417.37643646 347.07607174 417.34300804 C343.29479092 417.31203907 339.51344932 417.29855799 335.7320776 417.28349876 C328.3438716 417.25155151 320.9560422 417.19888801 313.5680151 417.13701439 C313.5680151 424.39701439 313.5680151 431.65701439 313.5680151 439.13701439 C315.2180151 439.46701439 316.8680151 439.79701439 318.5680151 440.13701439 C321.29260852 442.8507447 321.94574687 444.86432247 321.97206783 448.6550808 C321.99109409 449.98764412 321.99109409 449.98764412 322.01050472 451.34712791 C322.00610126 452.77839516 322.00610126 452.77839516 322.00160885 454.23857689 C322.0068507 455.23021843 322.01209255 456.22185997 322.01749325 457.24355125 C322.02391492 459.34328336 322.02257459 461.44305144 322.01406002 463.54277611 C322.00560059 466.72980437 322.03422803 469.91500923 322.06606197 473.10185814 C322.06767556 475.14743052 322.06709344 477.19300605 322.06410885 479.23857689 C322.07534283 480.18060966 322.08657681 481.12264244 322.09815121 482.09322166 C322.01715514 489.92684169 320.10538382 497.11572356 315.3180151 503.44951439 C308.79052335 509.82865405 303.09763313 512.25603629 294.02859974 512.27402878 C293.37020296 512.2766806 292.71180619 512.27933243 292.03345799 512.28206462 C289.81773897 512.28975038 287.60207542 512.29031651 285.38634396 512.29091454 C283.78547024 512.29492963 282.18459753 512.29936793 280.58372605 512.30419409 C276.1768581 512.31616011 271.77000109 512.3218081 267.36312008 512.32637525 C262.61311786 512.33233118 257.86312873 512.343941 253.11313534 512.35466576 C241.6382045 512.37918919 230.16326932 512.39381643 218.68832034 512.40672582 C215.44761562 512.41043767 212.20691132 512.41441091 208.96620703 512.41847849 C188.84404425 512.44371392 168.7218808 512.46576811 148.5997057 512.47820663 C143.93875151 512.48113635 139.27779735 512.48409801 134.61684322 512.48711205 C133.45837919 512.4878581 132.29991515 512.48860415 131.10634615 512.4893728 C112.33775021 512.50202785 93.56924897 512.53525309 74.80069731 512.57691388 C55.53381032 512.61933047 36.26697183 512.64290132 17.00003827 512.6481272 C6.18138372 512.65154152 -4.63712279 512.66329936 -15.45573139 512.69622993 C-24.66889154 512.72422771 -33.88187331 512.73523091 -43.0950727 512.72403447 C-47.79510037 512.71884725 -52.49475448 512.72173883 -57.1947279 512.74650002 C-61.50061908 512.76899551 -65.8058684 512.76825048 -70.11177085 512.74929614 C-71.66633649 512.74649656 -73.22094568 512.75209246 -74.7754413 512.76710908 C-84.67542206 512.85686776 -93.02067931 512.18036514 -100.56697094 505.1472019 C-108.76125691 496.57707934 -108.87082273 488.49335086 -108.82639408 477.08810997 C-108.83128525 475.53826608 -108.8374761 473.98842584 -108.84485197 472.43859178 C-108.86124613 468.18666666 -108.85893463 463.93492703 -108.853477 459.68298137 C-108.85080615 455.09457176 -108.86533968 450.50621151 -108.87757206 445.91782188 C-108.89862618 436.93104827 -108.90316691 427.94433917 -108.90138417 418.95754381 C-108.90007649 411.65229602 -108.90388101 404.34706835 -108.91130924 397.04182434 C-108.91340844 394.93745194 -108.91550604 392.83307954 -108.91760206 390.72870713 C-108.91864559 389.68129333 -108.91968912 388.63387953 -108.92076427 387.55472592 C-108.9396667 367.7451998 -108.93861648 347.93571072 -108.93179494 328.12617932 C-108.92621997 310.00764818 -108.94704296 291.88925847 -108.98015541 273.77076038 C-109.01389661 255.16369411 -109.02906017 236.55669557 -109.02443838 217.94959813 C-109.02219407 207.50435485 -109.02743132 197.05924226 -109.05233097 186.61402512 C-109.07334965 177.72115016 -109.07693045 168.82847756 -109.05803138 159.93559428 C-109.04887692 155.39959939 -109.04772157 150.86398173 -109.06838703 146.32801628 C-109.08711135 142.17210199 -109.08257758 138.0168735 -109.05984122 133.8609852 C-109.05565909 132.36102542 -109.05984252 130.86101292 -109.07343715 129.36110892 C-109.15920795 119.20269039 -107.94455449 111.39137624 -101.1507349 103.48076439 C-100.4185474 102.87232689 -99.6863599 102.26388939 -98.9319849 101.63701439 C-98.1997974 101.00795189 -97.4676099 100.37888939 -96.7132349 99.73076439 C-88.60558604 94.06651656 -78.4700659 94.92321765 -68.98886967 94.89678001 C-66.87120879 94.88702233 -64.75449921 94.85590925 -62.63706303 94.82451439 C-61.27574059 94.81798723 -59.91441131 94.81273563 -58.55307865 94.80888939 C-57.3303223 94.79954369 -56.10756596 94.79019798 -54.84775639 94.78056908 C-50.99601553 95.18250901 -48.62836294 95.94865372 -45.4319849 98.13701439 C-45.1019849 99.78701439 -44.7719849 101.43701439 -44.4319849 103.13701439 C-38.4919849 103.13701439 -32.5519849 103.13701439 -26.4319849 103.13701439 C-26.4634058 99.53497093 -26.4634058 99.53497093 -26.49546146 95.86015892 C-26.56194636 87.89746857 -26.60600581 79.93476548 -26.63923359 71.97187042 C-26.66004675 67.1472109 -26.68824891 62.32283744 -26.73374271 57.49834251 C-26.77742533 52.83637647 -26.80116911 48.17468439 -26.81149387 43.51252937 C-26.81884521 41.74003733 -26.8332001 39.9675591 -26.85490513 38.19518471 C-26.98253022 27.33490729 -26.92610869 17.9266604 -20.1819849 8.82451439 C-14.13398072 2.91396485 -8.49318429 0.01680116 0 0 Z " fill="#E3E9EE" transform="translate(108.43198490142822,-0.13701438903808594)"/>
<path d="M0 0 C0.98839696 -0.00397774 0.98839696 -0.00397774 1.99676153 -0.00803584 C4.22032044 -0.01573824 6.44382422 -0.01628837 8.66739559 -0.01688576 C10.27153106 -0.02089977 11.87566551 -0.02533789 13.47979873 -0.03016531 C17.90032761 -0.04214365 22.32084556 -0.04778219 26.74138749 -0.05234647 C31.504359 -0.05829784 36.26731742 -0.0699089 41.03028011 -0.08063698 C52.53974092 -0.10517246 64.04920606 -0.11979023 75.55868497 -0.13269705 C78.8089288 -0.13640828 82.05917219 -0.14038157 85.30941558 -0.14444971 C105.48805424 -0.16968656 125.66669358 -0.19174219 145.84534454 -0.20417786 C150.52056093 -0.20710761 155.19577729 -0.21006927 159.87099361 -0.21308327 C161.61402384 -0.21420234 161.61402384 -0.21420234 163.3922668 -0.21534403 C182.21589167 -0.22799736 201.03942208 -0.26121937 219.86300278 -0.3028851 C239.18409871 -0.34530182 258.50514627 -0.36887263 277.82628864 -0.37409842 C288.67625703 -0.37751293 299.52607782 -0.38927285 310.3760004 -0.42220116 C319.61663301 -0.45019923 328.85708777 -0.46120205 338.09775949 -0.4500057 C342.81195665 -0.44481837 347.52578136 -0.44771069 352.23992443 -0.47247124 C356.55880784 -0.49496616 360.87705133 -0.49422212 365.19594597 -0.47526737 C366.75525207 -0.47246768 368.31460159 -0.47806424 369.8738379 -0.4930803 C379.7869715 -0.58268173 388.14596569 0.08323712 395.70282656 7.12682688 C402.63412411 14.37533114 404.01679987 21.05981377 403.97206783 30.78227806 C403.98236271 32.35425201 403.98236271 32.35425201 403.99286556 33.95798302 C404.01110396 37.40712247 404.00730163 40.85580602 404.00160885 44.30498314 C404.00617061 46.70678416 404.01147617 49.10858388 404.01749325 51.5103817 C404.02641745 56.53628924 404.02400725 61.56203781 404.01406002 66.58794212 C404.00254532 73.03444048 404.02282417 79.48039312 404.05197716 85.9268198 C404.07029909 90.8827215 404.07005512 95.83849128 404.06433964 100.79441833 C404.06418607 103.17191715 404.07025937 105.5494247 404.08263111 107.92689133 C404.09747075 111.24492436 404.08691663 114.56193383 404.06972408 117.87993431 C404.07939205 118.86443565 404.08906002 119.848937 404.09902096 120.86327171 C404.02721851 127.46450134 404.02721851 127.46450134 401.75931454 130.78589439 C399.5680151 132.13701439 399.5680151 132.13701439 396.0055151 132.01201439 C392.5680151 131.13701439 392.5680151 131.13701439 389.5680151 129.13701439 C385.0341916 115.53554388 388.5680151 100.47422317 388.5680151 86.13701439 C256.8980151 86.13701439 125.2280151 86.13701439 -10.4319849 86.13701439 C-10.3082349 136.70951439 -10.1844849 187.28201439 -10.0569849 239.38701439 C-10.02298588 255.37815697 -9.98898685 271.36929955 -9.95395756 287.8450222 C-9.91406632 302.13125045 -9.91406632 302.13125045 -9.87152958 316.41747093 C-9.85259763 322.79979403 -9.83911569 329.18210056 -9.82929325 335.56444359 C-9.81795517 342.91951805 -9.7997843 350.27453719 -9.77305611 357.62957244 C-9.75959196 361.39451021 -9.74927345 365.15938426 -9.74773049 368.9243474 C-9.74601141 372.95001283 -9.72903066 376.97546623 -9.7104578 381.0010891 C-9.71239328 382.18362141 -9.71432877 383.36615372 -9.7163229 384.58452034 C-9.70885666 385.66222443 -9.70139042 386.73992851 -9.69369793 387.8502903 C-9.69141961 388.78136455 -9.68914129 389.7124388 -9.68679392 390.67172742 C-9.4050132 393.39796662 -9.00069347 394.88940972 -7.4319849 397.13701439 C-3.59362575 400.12875177 -0.66657212 400.51305621 4.13232994 400.51733112 C4.78126033 400.52199104 5.43019072 400.52665096 6.09878567 400.53145209 C8.27643279 400.54341687 10.45345769 400.53400143 12.63111019 400.52469444 C14.20682692 400.52886673 15.78254064 400.53434366 17.35824877 400.54101425 C21.69082924 400.55550147 26.02322 400.55121395 30.355811 400.54384744 C35.02733813 400.53912617 39.69882361 400.55161637 44.37033749 400.56186485 C53.52315498 400.57907855 62.6759039 400.57988755 71.82873338 400.57465195 C79.26659494 400.57061386 86.7044362 400.57204951 94.14229679 400.57740021 C95.7289641 400.57852284 95.7289641 400.57852284 97.3476853 400.57966815 C99.49641724 400.5811996 101.64514919 400.58273794 103.79388113 400.58428312 C123.95331931 400.59801742 144.1127187 400.5925639 164.27215601 400.58109791 C182.72328982 400.57116414 201.17432338 400.58410705 219.62544172 400.6080321 C238.56238725 400.63240247 257.49928603 400.64203607 276.43624693 400.63537937 C287.07140046 400.63188262 297.70647685 400.6341493 308.34161854 400.6516304 C317.39493475 400.6663266 326.44811951 400.66702168 335.50143307 400.64955949 C340.12192646 400.64102586 344.74218478 400.63895739 349.36266613 400.65421104 C353.59115142 400.66799797 357.81919893 400.66337275 362.04765851 400.64397181 C363.57855996 400.64019299 365.10949597 400.64318768 366.64036679 400.65358346 C368.72006026 400.66670358 370.79823158 400.6552174 372.87785912 400.63758564 C374.03329576 400.6374783 375.1887324 400.63737097 376.37918228 400.63726038 C380.34003124 400.01590488 382.48286016 398.66579833 385.5680151 396.13701439 C387.43015424 393.40751004 387.8180441 391.28568655 387.81855488 388.01714897 C387.82355358 387.2000204 387.82855227 386.38289184 387.83370245 385.5410018 C387.82670762 384.20268513 387.82670762 384.20268513 387.8195715 382.83733177 C387.82254163 381.88526864 387.82551177 380.9332055 387.82857192 379.95229197 C387.83622595 376.75403973 387.82971214 373.55597038 387.82338619 370.35771751 C387.82613537 368.068079 387.82981483 365.77844143 387.83435726 363.48880577 C387.84247645 358.55442581 387.84463593 353.62009118 387.84241009 348.68570518 C387.83958202 340.88790226 387.85390942 333.09019031 387.87139034 325.2924099 C387.8945917 314.36382479 387.91370776 303.43524594 387.92641354 292.5066433 C387.92722391 291.8131413 387.92803428 291.11963931 387.9288692 290.4051221 C387.94009478 280.55971692 387.9453728 270.7143174 387.94825633 260.86890668 C387.94846032 260.17540468 387.9486643 259.48190269 387.94887447 258.76738548 C387.94907441 258.07472802 387.94927435 257.38207056 387.94948034 256.66842347 C387.95321136 245.12402405 387.97251403 233.57972388 388.00396883 222.03536558 C388.02423495 214.27897661 388.02652771 206.52285183 388.01568866 198.76644707 C388.01308859 193.94683564 388.02705095 189.12737928 388.04576969 184.30780792 C388.05110926 182.06803578 388.04956499 179.82823538 388.04073429 177.58847427 C388.02967279 174.53750803 388.04297553 171.4875981 388.06249142 168.43669701 C388.05336676 167.5444859 388.0442421 166.65227479 388.03484094 165.73302698 C388.10947972 159.76197433 388.10947972 159.76197433 390.41601658 156.61828423 C393.25922842 154.66123644 395.10962815 154.13701439 398.5680151 154.13701439 C401.21973896 155.54644394 401.21973896 155.54644394 403.5680151 158.13701439 C404.32113999 161.27891152 404.2424831 164.36796097 404.20293331 167.58614159 C404.21073326 168.55438909 404.21853322 169.52263659 404.22656953 170.52022493 C404.24655787 173.77389406 404.23069736 177.0264024 404.21498775 180.2800808 C404.22176107 182.60925036 404.23066258 184.93841457 404.24153805 187.26756859 C404.26437922 193.6026448 404.25547286 199.93731494 404.23964262 206.27239847 C404.22828079 212.22916077 404.2369464 218.18587251 404.24427859 224.14263611 C404.25854278 236.6671918 404.24213647 249.19156466 404.21527676 261.71609037 C404.19296853 272.45007747 404.19679141 283.18379397 404.21987057 293.91777611 C404.24667083 306.38821853 404.25713653 318.85850025 404.24180925 331.32896745 C404.23402196 337.92782609 404.23295276 344.52649862 404.24949169 351.12534523 C404.26396797 357.33560726 404.25385603 363.54536033 404.22502041 369.75556755 C404.21842488 372.03151798 404.22028089 374.30751145 404.23133373 376.5834446 C404.24506178 379.6981974 404.22778391 382.81133459 404.20293331 385.92598534 C404.21408692 386.82017414 404.22524053 387.71436294 404.23673213 388.63564837 C404.11629081 396.45485617 401.30602254 402.61071306 396.53285885 408.75810814 C386.66650882 417.59790152 375.09138072 417.57993948 362.3961401 417.42998314 C360.97839977 417.42437153 359.56065352 417.42010886 358.14290524 417.41711998 C354.45379053 417.40579401 350.76504351 417.37643646 347.07607174 417.34300804 C343.29479092 417.31203907 339.51344932 417.29855799 335.7320776 417.28349876 C328.3438716 417.25155151 320.9560422 417.19888801 313.5680151 417.13701439 C313.5680151 424.39701439 313.5680151 431.65701439 313.5680151 439.13701439 C315.2180151 439.46701439 316.8680151 439.79701439 318.5680151 440.13701439 C321.29260852 442.8507447 321.94574687 444.86432247 321.97206783 448.6550808 C321.99109409 449.98764412 321.99109409 449.98764412 322.01050472 451.34712791 C322.00610126 452.77839516 322.00610126 452.77839516 322.00160885 454.23857689 C322.0068507 455.23021843 322.01209255 456.22185997 322.01749325 457.24355125 C322.02391492 459.34328336 322.02257459 461.44305144 322.01406002 463.54277611 C322.00560059 466.72980437 322.03422803 469.91500923 322.06606197 473.10185814 C322.06767556 475.14743052 322.06709344 477.19300605 322.06410885 479.23857689 C322.07534283 480.18060966 322.08657681 481.12264244 322.09815121 482.09322166 C322.01715514 489.92684169 320.10538382 497.11572356 315.3180151 503.44951439 C308.79052335 509.82865405 303.09763313 512.25603629 294.02859974 512.27402878 C293.37020296 512.2766806 292.71180619 512.27933243 292.03345799 512.28206462 C289.81773897 512.28975038 287.60207542 512.29031651 285.38634396 512.29091454 C283.78547024 512.29492963 282.18459753 512.29936793 280.58372605 512.30419409 C276.1768581 512.31616011 271.77000109 512.3218081 267.36312008 512.32637525 C262.61311786 512.33233118 257.86312873 512.343941 253.11313534 512.35466576 C241.6382045 512.37918919 230.16326932 512.39381643 218.68832034 512.40672582 C215.44761562 512.41043767 212.20691132 512.41441091 208.96620703 512.41847849 C188.84404425 512.44371392 168.7218808 512.46576811 148.5997057 512.47820663 C143.93875151 512.48113635 139.27779735 512.48409801 134.61684322 512.48711205 C133.45837919 512.4878581 132.29991515 512.48860415 131.10634615 512.4893728 C112.33775021 512.50202785 93.56924897 512.53525309 74.80069731 512.57691388 C55.53381032 512.61933047 36.26697183 512.64290132 17.00003827 512.6481272 C6.18138372 512.65154152 -4.63712279 512.66329936 -15.45573139 512.69622993 C-24.66889154 512.72422771 -33.88187331 512.73523091 -43.0950727 512.72403447 C-47.79510037 512.71884725 -52.49475448 512.72173883 -57.1947279 512.74650002 C-61.50061908 512.76899551 -65.8058684 512.76825048 -70.11177085 512.74929614 C-71.66633649 512.74649656 -73.22094568 512.75209246 -74.7754413 512.76710908 C-84.67542206 512.85686776 -93.02067931 512.18036514 -100.56697094 505.1472019 C-108.76125691 496.57707934 -108.87082273 488.49335086 -108.82639408 477.08810997 C-108.83128525 475.53826608 -108.8374761 473.98842584 -108.84485197 472.43859178 C-108.86124613 468.18666666 -108.85893463 463.93492703 -108.853477 459.68298137 C-108.85080615 455.09457176 -108.86533968 450.50621151 -108.87757206 445.91782188 C-108.89862618 436.93104827 -108.90316691 427.94433917 -108.90138417 418.95754381 C-108.90007649 411.65229602 -108.90388101 404.34706835 -108.91130924 397.04182434 C-108.91340844 394.93745194 -108.91550604 392.83307954 -108.91760206 390.72870713 C-108.91864559 389.68129333 -108.91968912 388.63387953 -108.92076427 387.55472592 C-108.9396667 367.7451998 -108.93861648 347.93571072 -108.93179494 328.12617932 C-108.92621997 310.00764818 -108.94704296 291.88925847 -108.98015541 273.77076038 C-109.01389661 255.16369411 -109.02906017 236.55669557 -109.02443838 217.94959813 C-109.02219407 207.50435485 -109.02743132 197.05924226 -109.05233097 186.61402512 C-109.07334965 177.72115016 -109.07693045 168.82847756 -109.05803138 159.93559428 C-109.04887692 155.39959939 -109.04772157 150.86398173 -109.06838703 146.32801628 C-109.08711135 142.17210199 -109.08257758 138.0168735 -109.05984122 133.8609852 C-109.05565909 132.36102542 -109.05984252 130.86101292 -109.07343715 129.36110892 C-109.15920795 119.20269039 -107.94455449 111.39137624 -101.1507349 103.48076439 C-100.4185474 102.87232689 -99.6863599 102.26388939 -98.9319849 101.63701439 C-98.1997974 101.00795189 -97.4676099 100.37888939 -96.7132349 99.73076439 C-88.60558604 94.06651656 -78.4700659 94.92321765 -68.98886967 94.89678001 C-66.87120879 94.88702233 -64.75449921 94.85590925 -62.63706303 94.82451439 C-61.27574059 94.81798723 -59.91441131 94.81273563 -58.55307865 94.80888939 C-57.3303223 94.79954369 -56.10756596 94.79019798 -54.84775639 94.78056908 C-50.99601553 95.18250901 -48.62836294 95.94865372 -45.4319849 98.13701439 C-45.1019849 99.78701439 -44.7719849 101.43701439 -44.4319849 103.13701439 C-38.4919849 103.13701439 -32.5519849 103.13701439 -26.4319849 103.13701439 C-26.4634058 99.53497093 -26.4634058 99.53497093 -26.49546146 95.86015892 C-26.56194636 87.89746857 -26.60600581 79.93476548 -26.63923359 71.97187042 C-26.66004675 67.1472109 -26.68824891 62.32283744 -26.73374271 57.49834251 C-26.77742533 52.83637647 -26.80116911 48.17468439 -26.81149387 43.51252937 C-26.81884521 41.74003733 -26.8332001 39.9675591 -26.85490513 38.19518471 C-26.98253022 27.33490729 -26.92610869 17.9266604 -20.1819849 8.82451439 C-14.13398072 2.91396485 -8.49318429 0.01680116 0 0 Z " fill="#B2E49E" transform="translate(108.43198490142822,-0.13701438903808594)"/>
<path d="M0 0 C0.98839696 -0.00397774 0.98839696 -0.00397774 1.99676153 -0.00803584 C4.22032044 -0.01573824 6.44382422 -0.01628837 8.66739559 -0.01688576 C10.27153106 -0.02089977 11.87566551 -0.02533789 13.47979873 -0.03016531 C17.90032761 -0.04214365 22.32084556 -0.04778219 26.74138749 -0.05234647 C31.504359 -0.05829784 36.26731742 -0.0699089 41.03028011 -0.08063698 C52.53974092 -0.10517246 64.04920606 -0.11979023 75.55868497 -0.13269705 C78.8089288 -0.13640828 82.05917219 -0.14038157 85.30941558 -0.14444971 C105.48805424 -0.16968656 125.66669358 -0.19174219 145.84534454 -0.20417786 C150.52056093 -0.20710761 155.19577729 -0.21006927 159.87099361 -0.21308327 C161.61402384 -0.21420234 161.61402384 -0.21420234 163.3922668 -0.21534403 C182.21589167 -0.22799736 201.03942208 -0.26121937 219.86300278 -0.3028851 C239.18409871 -0.34530182 258.50514627 -0.36887263 277.82628864 -0.37409842 C288.67625703 -0.37751293 299.52607782 -0.38927285 310.3760004 -0.42220116 C319.61663301 -0.45019923 328.85708777 -0.46120205 338.09775949 -0.4500057 C342.81195665 -0.44481837 347.52578136 -0.44771069 352.23992443 -0.47247124 C356.55880784 -0.49496616 360.87705133 -0.49422212 365.19594597 -0.47526737 C366.75525207 -0.47246768 368.31460159 -0.47806424 369.8738379 -0.4930803 C379.7869715 -0.58268173 388.14596569 0.08323712 395.70282656 7.12682688 C402.63412411 14.37533114 404.01679987 21.05981377 403.97206783 30.78227806 C403.98236271 32.35425201 403.98236271 32.35425201 403.99286556 33.95798302 C404.01110396 37.40712247 404.00730163 40.85580602 404.00160885 44.30498314 C404.00617061 46.70678416 404.01147617 49.10858388 404.01749325 51.5103817 C404.02641745 56.53628924 404.02400725 61.56203781 404.01406002 66.58794212 C404.00254532 73.03444048 404.02282417 79.48039312 404.05197716 85.9268198 C404.07029909 90.8827215 404.07005512 95.83849128 404.06433964 100.79441833 C404.06418607 103.17191715 404.07025937 105.5494247 404.08263111 107.92689133 C404.09747075 111.24492436 404.08691663 114.56193383 404.06972408 117.87993431 C404.07939205 118.86443565 404.08906002 119.848937 404.09902096 120.86327171 C404.02721851 127.46450134 404.02721851 127.46450134 401.75931454 130.78589439 C399.5680151 132.13701439 399.5680151 132.13701439 396.0055151 132.01201439 C392.5680151 131.13701439 392.5680151 131.13701439 389.5680151 129.13701439 C385.0341916 115.53554388 388.5680151 100.47422317 388.5680151 86.13701439 C256.8980151 86.13701439 125.2280151 86.13701439 -10.4319849 86.13701439 C-10.3082349 136.70951439 -10.1844849 187.28201439 -10.0569849 239.38701439 C-10.02298588 255.37815697 -9.98898685 271.36929955 -9.95395756 287.8450222 C-9.91406632 302.13125045 -9.91406632 302.13125045 -9.87152958 316.41747093 C-9.85259763 322.79979403 -9.83911569 329.18210056 -9.82929325 335.56444359 C-9.81795517 342.91951805 -9.7997843 350.27453719 -9.77305611 357.62957244 C-9.75959196 361.39451021 -9.74927345 365.15938426 -9.74773049 368.9243474 C-9.74601141 372.95001283 -9.72903066 376.97546623 -9.7104578 381.0010891 C-9.71239328 382.18362141 -9.71432877 383.36615372 -9.7163229 384.58452034 C-9.70885666 385.66222443 -9.70139042 386.73992851 -9.69369793 387.8502903 C-9.69141961 388.78136455 -9.68914129 389.7124388 -9.68679392 390.67172742 C-9.4050132 393.39796662 -9.00069347 394.88940972 -7.4319849 397.13701439 C-3.59362575 400.12875177 -0.66657212 400.51305621 4.13232994 400.51733112 C4.78126033 400.52199104 5.43019072 400.52665096 6.09878567 400.53145209 C8.27643279 400.54341687 10.45345769 400.53400143 12.63111019 400.52469444 C14.20682692 400.52886673 15.78254064 400.53434366 17.35824877 400.54101425 C21.69082924 400.55550147 26.02322 400.55121395 30.355811 400.54384744 C35.02733813 400.53912617 39.69882361 400.55161637 44.37033749 400.56186485 C53.52315498 400.57907855 62.6759039 400.57988755 71.82873338 400.57465195 C79.26659494 400.57061386 86.7044362 400.57204951 94.14229679 400.57740021 C95.7289641 400.57852284 95.7289641 400.57852284 97.3476853 400.57966815 C99.49641724 400.5811996 101.64514919 400.58273794 103.79388113 400.58428312 C123.95331931 400.59801742 144.1127187 400.5925639 164.27215601 400.58109791 C182.72328982 400.57116414 201.17432338 400.58410705 219.62544172 400.6080321 C238.56238725 400.63240247 257.49928603 400.64203607 276.43624693 400.63537937 C287.07140046 400.63188262 297.70647685 400.6341493 308.34161854 400.6516304 C317.39493475 400.6663266 326.44811951 400.66702168 335.50143307 400.64955949 C340.12192646 400.64102586 344.74218478 400.63895739 349.36266613 400.65421104 C353.59115142 400.66799797 357.81919893 400.66337275 362.04765851 400.64397181 C363.57855996 400.64019299 365.10949597 400.64318768 366.64036679 400.65358346 C368.72006026 400.66670358 370.79823158 400.6552174 372.87785912 400.63758564 C374.03329576 400.6374783 375.1887324 400.63737097 376.37918228 400.63726038 C380.34003124 400.01590488 382.48286016 398.66579833 385.5680151 396.13701439 C387.43015424 393.40751004 387.8180441 391.28568655 387.81855488 388.01714897 C387.82355358 387.2000204 387.82855227 386.38289184 387.83370245 385.5410018 C387.82670762 384.20268513 387.82670762 384.20268513 387.8195715 382.83733177 C387.82254163 381.88526864 387.82551177 380.9332055 387.82857192 379.95229197 C387.83622595 376.75403973 387.82971214 373.55597038 387.82338619 370.35771751 C387.82613537 368.068079 387.82981483 365.77844143 387.83435726 363.48880577 C387.84247645 358.55442581 387.84463593 353.62009118 387.84241009 348.68570518 C387.83958202 340.88790226 387.85390942 333.09019031 387.87139034 325.2924099 C387.8945917 314.36382479 387.91370776 303.43524594 387.92641354 292.5066433 C387.92722391 291.8131413 387.92803428 291.11963931 387.9288692 290.4051221 C387.94009478 280.55971692 387.9453728 270.7143174 387.94825633 260.86890668 C387.94846032 260.17540468 387.9486643 259.48190269 387.94887447 258.76738548 C387.94907441 258.07472802 387.94927435 257.38207056 387.94948034 256.66842347 C387.95321136 245.12402405 387.97251403 233.57972388 388.00396883 222.03536558 C388.02423495 214.27897661 388.02652771 206.52285183 388.01568866 198.76644707 C388.01308859 193.94683564 388.02705095 189.12737928 388.04576969 184.30780792 C388.05110926 182.06803578 388.04956499 179.82823538 388.04073429 177.58847427 C388.02967279 174.53750803 388.04297553 171.4875981 388.06249142 168.43669701 C388.05336676 167.5444859 388.0442421 166.65227479 388.03484094 165.73302698 C388.10947972 159.76197433 388.10947972 159.76197433 390.41601658 156.61828423 C393.25922842 154.66123644 395.10962815 154.13701439 398.5680151 154.13701439 C401.21973896 155.54644394 401.21973896 155.54644394 403.5680151 158.13701439 C404.32113999 161.27891152 404.2424831 164.36796097 404.20293331 167.58614159 C404.21073326 168.55438909 404.21853322 169.52263659 404.22656953 170.52022493 C404.24655787 173.77389406 404.23069736 177.0264024 404.21498775 180.2800808 C404.22176107 182.60925036 404.23066258 184.93841457 404.24153805 187.26756859 C404.26437922 193.6026448 404.25547286 199.93731494 404.23964262 206.27239847 C404.22828079 212.22916077 404.2369464 218.18587251 404.24427859 224.14263611 C404.25854278 236.6671918 404.24213647 249.19156466 404.21527676 261.71609037 C404.19296853 272.45007747 404.19679141 283.18379397 404.21987057 293.91777611 C404.24667083 306.38821853 404.25713653 318.85850025 404.24180925 331.32896745 C404.23402196 337.92782609 404.23295276 344.52649862 404.24949169 351.12534523 C404.26396797 357.33560726 404.25385603 363.54536033 404.22502041 369.75556755 C404.21842488 372.03151798 404.22028089 374.30751145 404.23133373 376.5834446 C404.24506178 379.6981974 404.22778391 382.81133459 404.20293331 385.92598534 C404.21408692 386.82017414 404.22524053 387.71436294 404.23673213 388.63564837 C404.11629081 396.45485617 401.30602254 402.61071306 396.53285885 408.75810814 C387.41834471 416.92429133 376.87102766 417.59674017 365.05922604 417.43272972 C363.86382954 417.42870628 362.66843304 417.42468284 361.4368124 417.42053747 C358.16390125 417.40696836 354.89142065 417.38009316 351.61865234 417.34772295 C348.08154609 417.31635224 344.54437161 417.30319428 341.00716305 417.28861427 C335.73225182 417.26553755 330.4574119 417.23747007 325.18256116 417.20324121 C315.31034391 417.13972212 305.43846945 417.1167699 295.56606197 417.1139431 C294.81738428 417.11368656 294.0687066 417.11343002 293.2973417 417.11316571 C290.24165933 417.11217826 287.18597699 417.11135234 284.1302945 417.11082713 C275.38206967 417.10910754 266.63385884 417.09856668 257.88564205 417.08714867 C257.07369684 417.08610906 256.26175163 417.08506946 255.42520201 417.08399835 C232.51760813 417.05436439 209.61003747 417.00886074 186.7024793 416.95909344 C182.0975996 416.94909031 177.49271957 416.93924324 172.88783932 416.92949486 C171.97212379 416.92755348 171.05640826 416.92561211 170.11294377 416.92361191 C155.11684613 416.89224385 140.12076417 416.87549785 125.12463975 416.86382017 C109.59616118 416.85141773 94.06776244 416.82398639 78.5393343 416.78240132 C69.02128251 416.75737349 59.5033629 416.74388912 49.98527771 416.74558482 C43.50312794 416.74561453 37.02111464 416.73102389 30.53901809 416.70485011 C26.80695572 416.69020789 23.07517339 416.68200002 19.3430872 416.6912117 C15.29841139 416.7010278 11.25447713 416.67999293 7.2098608 416.65599632 C6.03560669 416.66375674 4.86135258 416.67151716 3.65151501 416.67951274 C-5.6289138 416.58183676 -11.93319333 414.09654655 -18.8929224 407.85185814 C-23.21609583 403.03492125 -25.55039394 396.85033595 -25.5706501 390.43385696 C-25.57612454 389.46068492 -25.58159899 388.48751287 -25.58723933 387.48485076 C-25.58821743 386.41268408 -25.58919554 385.3405174 -25.59020329 384.23586082 C-25.59514126 383.09805109 -25.60007924 381.96024136 -25.60516685 380.78795254 C-25.62059756 376.95102025 -25.62891947 373.1141048 -25.63730717 369.27715111 C-25.64633658 366.53131809 -25.65685443 363.78549124 -25.66730595 361.03966331 C-25.69197596 354.3212529 -25.71136216 347.60283688 -25.72905869 340.88440488 C-25.75008749 332.98532962 -25.77653925 325.0862752 -25.80323016 317.18721737 C-25.85102539 302.9929224 -25.89419494 288.79861712 -25.93467045 274.60429955 C-25.9734252 261.01574758 -26.01485886 247.42720792 -26.05967045 233.83867455 C-26.0651592 232.17040245 -26.07064779 230.50213035 -26.07613623 228.83385825 C-26.08707629 225.51171649 -26.09803009 222.18957477 -26.10898995 218.86743307 C-26.11444253 217.21380393 -26.11989398 215.56017479 -26.12534428 213.90654564 C-26.12803718 213.08952716 -26.13073009 212.27250868 -26.1335046 211.43073207 C-26.19469271 192.83477413 -26.25200259 174.2388215 -26.29541874 155.64281273 C-26.29910624 154.07485032 -26.30279446 152.50688791 -26.30648339 150.9389255 C-26.32081956 144.82523866 -26.3351204 138.71155177 -26.34891534 132.59786367 C-26.38710419 115.81043228 -26.44594774 99.02350533 -26.55866051 82.23637009 C-26.60474191 75.36820233 -26.63891468 68.499998 -26.66859645 61.63174117 C-26.69147383 56.57608115 -26.73067839 51.52095291 -26.78432894 46.4655304 C-26.81178502 43.49632643 -26.82283405 40.5272415 -26.82878518 37.55792379 C-26.83753689 35.62820378 -26.86638491 33.69860577 -26.89633083 31.76909828 C-26.88814894 23.20577112 -25.41448361 15.79305868 -20.1819849 8.82451439 C-14.13398072 2.91396485 -8.49318429 0.01680116 0 0 Z " fill="#010202" transform="translate(108.43198490142822,-0.13701438903808594)"/>
<path d="M0 0 C1.14020426 -0.00538554 2.28040853 -0.01077108 3.45516443 -0.01631981 C7.27828398 -0.03063477 11.10105901 -0.02348671 14.92419434 -0.01637268 C17.6640869 -0.02043065 20.40396183 -0.02893707 23.1438446 -0.03717041 C29.81465274 -0.05436026 36.48536669 -0.05519814 43.15619123 -0.04995751 C48.57791752 -0.04591532 53.99961598 -0.04735993 59.42134094 -0.05270576 C60.57901171 -0.0538284 60.57901171 -0.0538284 61.76006976 -0.05497371 C63.32794917 -0.05650519 64.89582858 -0.05804354 66.46370798 -0.05958868 C81.16416129 -0.0733141 95.86456137 -0.06787548 110.56501347 -0.05640347 C124.01423983 -0.04646851 137.46332867 -0.05941618 150.91253382 -0.08333766 C164.72377863 -0.10771797 178.53495936 -0.11733932 192.34622526 -0.11068493 C200.09961669 -0.10719065 207.8529023 -0.10943862 215.60627747 -0.12693596 C222.20570341 -0.14164451 228.80494902 -0.14231102 235.40437138 -0.12486505 C238.77133667 -0.11634169 242.1377145 -0.11639804 245.50470543 -0.1295166 C249.15472926 -0.14265409 252.803872 -0.13124192 256.45385742 -0.11352539 C257.51786223 -0.1231304 258.58186704 -0.1327354 259.67811441 -0.14263147 C266.74771975 -0.07184052 270.29443008 0.97964104 275.37145996 6.02049255 C278.29809147 9.75953348 279.8486529 11.77930717 279.86737061 16.49809265 C279.87308075 17.35882889 279.87879089 18.21956512 279.88467407 19.10638428 C279.88579193 20.05289352 279.88690979 20.99940277 279.88806152 21.97459412 C279.89302643 22.96986618 279.89799133 23.96513824 279.90310669 24.99057007 C279.91775363 28.29482201 279.92453509 31.59902593 279.93005371 34.90330505 C279.93580377 37.1953583 279.94156152 39.48741152 279.94732666 41.77946472 C279.95784433 46.59141769 279.96368175 51.40335392 279.96716309 56.21531677 C279.97264459 62.38028103 279.99666222 68.54502406 280.02513504 74.70991898 C280.04376395 79.44713485 280.0489672 84.18429752 280.05049896 88.92154694 C280.05352624 91.19412697 280.06155725 93.46670605 280.07468414 95.73925018 C280.09174698 98.92073342 280.08986341 102.10167738 280.08337402 105.28318787 C280.09258881 106.22160019 280.10180359 107.16001251 280.11129761 108.12686157 C280.07259841 114.18636486 279.25636396 118.58828187 275.04333496 123.2509613 C274.4645459 123.72920349 273.88575684 124.20744568 273.28942871 124.70018005 C272.71321777 125.19131287 272.13700684 125.68244568 271.54333496 126.1884613 C268.20405431 128.39310466 264.854041 128.51375262 260.93107224 128.52469444 C259.96314106 128.52976899 258.99520988 128.53484353 257.99794745 128.54007185 C256.9372631 128.5405696 255.87657875 128.54106736 254.78375244 128.5415802 C253.65483526 128.54596245 252.52591809 128.55034471 251.3627913 128.55485976 C247.5658745 128.56825412 243.7689809 128.57442804 239.9720459 128.58055115 C237.25540385 128.58792553 234.53876665 128.59671536 231.8221283 128.60533142 C223.6605512 128.62983631 215.49896805 128.64447852 207.33736551 128.65739149 C205.03195905 128.66110442 202.7265532 128.66507756 200.42114735 128.66914415 C186.10208931 128.69437856 171.78303029 128.7164296 157.46395493 128.7288723 C154.14845527 128.73180194 150.83295564 128.73476361 147.51745605 128.73777771 C146.28139635 128.73889679 146.28139635 128.73889679 145.02036574 128.74003847 C131.66934906 128.75269404 118.31846548 128.78592127 104.96751103 128.82757954 C91.25803443 128.87000568 77.54862598 128.89356799 63.83908391 128.89879286 C56.14255792 128.9022059 48.44624009 128.91394855 40.74977875 128.9468956 C34.19573888 128.97490649 27.64194985 128.98589091 21.08785477 128.97470014 C17.74482756 128.96951611 14.40275078 128.97511211 11.05972862 128.99716568 C7.43205978 129.019795 3.80571462 129.0115892 0.17803955 128.99568176 C-0.87372192 129.00956385 -1.92548338 129.02344594 -3.00911641 129.03774869 C-9.62838969 128.96622245 -14.20762807 127.79474852 -19.27307129 123.38768005 C-23.75568076 118.11696019 -23.85756581 112.78410942 -23.8223877 106.08128357 C-23.83260956 105.06898682 -23.84283142 104.05669006 -23.85336304 103.01371765 C-23.88107031 99.68109725 -23.87924848 96.34930791 -23.87463379 93.0165863 C-23.88241194 90.69162694 -23.89108216 88.3666704 -23.90060425 86.04171753 C-23.91551007 81.17379026 -23.91495952 76.30615315 -23.90441895 71.43821716 C-23.8928271 65.20933158 -23.92670424 58.98163493 -23.97310829 52.7529459 C-24.00261374 47.95297335 -24.0043224 43.15328623 -23.99808884 38.35323906 C-23.99911358 36.0571806 -24.00955764 33.7611058 -24.02971268 31.46513557 C-24.05447187 28.25046772 -24.04084611 25.03810381 -24.0177002 21.82347107 C-24.03298767 20.88140305 -24.04827515 19.93933502 -24.06402588 18.96871948 C-23.97147035 13.13400047 -22.74839784 9.6639132 -19.14533043 5.06376553 C-13.27071386 -0.19531388 -7.48628722 -0.04228639 0 0 Z " fill="#9EAAB8" transform="translate(169.2730712890625,109.61231994628906)"/>
<path d="M0 0 C0.64493433 -0.00320648 1.28986866 -0.00641296 1.95434645 -0.0097166 C4.13032678 -0.01806343 6.3060352 -0.01207613 8.48202038 -0.00622082 C10.05188418 -0.00923938 11.62174651 -0.01312738 13.19160622 -0.01781338 C17.51726928 -0.02814039 21.84284989 -0.02589965 26.16851985 -0.02163279 C30.82916633 -0.01917402 35.48979251 -0.02816918 40.15043163 -0.03567028 C49.28613254 -0.04844355 58.4218041 -0.05020766 67.55751244 -0.04787002 C74.98159276 -0.04608944 82.40566414 -0.0478309 89.82974339 -0.05209446 C91.41265412 -0.05298724 91.41265412 -0.05298724 93.02754286 -0.05389806 C95.17112087 -0.05510977 97.31469888 -0.05632391 99.45827689 -0.05754044 C119.57811616 -0.06842633 139.69793869 -0.06624867 159.81777891 -0.06015559 C178.23345652 -0.05498686 196.64908123 -0.06623887 215.06474838 -0.08525381 C233.96094471 -0.10461574 252.85711599 -0.11289102 271.7533223 -0.10913056 C282.36725491 -0.10721584 292.98114249 -0.10973229 303.59506702 -0.1238451 C312.63194193 -0.13573901 321.6687441 -0.13718628 330.70561997 -0.12505493 C335.31796332 -0.11915191 339.93017352 -0.11810594 344.54250813 -0.13005733 C348.76360262 -0.14086796 352.98445204 -0.13787054 357.20553484 -0.12379565 C358.73380546 -0.12113534 360.262095 -0.12355687 361.79034714 -0.13153151 C363.86628587 -0.14161341 365.9413687 -0.13323734 368.01727295 -0.12025452 C369.74749749 -0.12033704 369.74749749 -0.12033704 371.51267606 -0.12042123 C375.26929599 0.32179785 377.52913442 1.18340479 380.69739819 3.25447559 C390.52497147 17.99583551 384.69739819 38.53756591 384.69739819 56.25447559 C253.02739819 56.25447559 121.35739819 56.25447559 -14.30260181 56.25447559 C-14.30260181 7.25447559 -14.30260181 7.25447559 -9.30260181 2.25447559 C-5.73963638 -0.1208347 -4.2281516 0.00317856 0 0 Z " fill="#8FD7F8" transform="translate(112.30260181427002,14.745524406433105)"/>
<path d="M0 0 C2.11766088 -0.00975768 4.23437046 -0.04087076 6.35180664 -0.07226562 C7.71312908 -0.07879278 9.07445836 -0.08404438 10.43579102 -0.08789062 C11.65854736 -0.09723633 12.88130371 -0.10658203 14.14111328 -0.11621094 C17.95162898 0.28142704 20.34745116 1.16267918 23.55688477 3.24023438 C24.57149976 6.7279734 24.90960641 9.05380701 23.86938477 12.55273438 C22.1978417 14.70186117 21.12328353 15.26941754 18.55688477 16.24023438 C15.90070735 16.42930287 13.34123256 16.51730231 10.68579102 16.51367188 C9.12653902 16.53395856 7.56729427 16.5548093 6.00805664 16.57617188 C3.56129817 16.59877019 1.11482681 16.61524527 -1.33203125 16.62109375 C-3.70161202 16.63063409 -6.06991554 16.6644221 -8.43920898 16.70117188 C-9.16643661 16.6961264 -9.89366425 16.69108093 -10.64292908 16.68588257 C-15.5327266 16.78022503 -18.01405317 17.76428521 -21.44311523 21.24023438 C-23.57105692 24.4321469 -23.70411066 25.31344422 -23.76196289 28.98706055 C-23.78183258 29.94783005 -23.80170227 30.90859955 -23.82217407 31.89848328 C-23.83950089 33.4501696 -23.83950089 33.4501696 -23.85717773 35.03320312 C-23.87654388 36.09436844 -23.89591003 37.15553375 -23.91586304 38.24885559 C-23.97569356 41.64173315 -24.02205845 45.03464457 -24.06811523 48.42773438 C-24.10629178 50.72657738 -24.14534332 53.02540604 -24.18530273 55.32421875 C-24.28139792 60.96276332 -24.3664353 66.60139417 -24.44311523 72.24023438 C-23.13640869 72.21928711 -21.82970215 72.19833984 -20.48339844 72.17675781 C-15.62869249 72.10427884 -10.77403425 72.05840563 -5.91894531 72.02050781 C-3.81892856 72.00041041 -1.71896765 71.97312771 0.38085938 71.93847656 C3.40191435 71.88987667 6.42222853 71.86724676 9.44360352 71.84960938 C10.84856331 71.81864166 10.84856331 71.81864166 12.28190613 71.78704834 C16.5401211 71.78558729 18.92453751 71.86389067 22.64990234 74.08105469 C24.55688477 76.24023438 24.55688477 76.24023438 25.18188477 79.17773438 C24.32130687 83.39456604 22.98843581 84.64510527 19.55688477 87.24023438 C16.17714986 87.92319642 12.87970084 87.82318744 9.44360352 87.72851562 C7.98927666 87.71790352 7.98927666 87.71790352 6.50556946 87.70707703 C3.4177134 87.67915311 0.33169001 87.61641741 -2.75561523 87.55273438 C-4.8525942 87.52764896 -6.94960167 87.50483622 -9.04663086 87.484375 C-14.17949532 87.42933275 -19.31099488 87.34307297 -24.44311523 87.24023438 C-24.38425219 125.99334552 -24.30971863 164.74639626 -24.21412895 203.49943484 C-24.20286061 208.07319066 -24.19172218 212.64694679 -24.18066406 217.22070312 C-24.17846038 218.13126677 -24.1762567 219.04183041 -24.17398623 219.97998689 C-24.13860088 234.72930472 -24.11374374 249.47862249 -24.09276821 264.22796704 C-24.07101602 279.35889607 -24.03797114 294.48976995 -23.99441367 309.62065208 C-23.96788693 318.95939404 -23.9501991 328.29806726 -23.94376919 337.63684504 C-23.93851844 344.03827847 -23.922312 350.43962536 -23.89744958 356.84101243 C-23.88342382 360.53588413 -23.87426775 364.23060088 -23.87810707 367.92550087 C-23.88214237 371.93040826 -23.86312791 375.93487506 -23.84184265 379.93972778 C-23.84669023 381.10898996 -23.8515378 382.27825215 -23.85653228 383.48294652 C-23.84235303 391.32034414 -23.84235303 391.32034414 -20.44311523 398.24023438 C-16.52517638 401.13586407 -13.72151407 401.61519496 -8.89441776 401.61496449 C-7.92355474 401.62105557 -7.92355474 401.62105557 -6.93307832 401.62726972 C-4.76116057 401.63722685 -2.5898874 401.62578208 -0.41798401 401.61445618 C1.15360679 401.61719639 2.72519576 401.62124814 4.29678017 401.62649983 C8.61797113 401.63710131 12.93895567 401.62894821 17.26013768 401.61774933 C21.91938566 401.60891825 26.57860632 401.61734771 31.237854 401.62361145 C40.36661743 401.63310809 49.49530191 401.6264919 58.62405949 401.61434851 C69.25112632 401.60073789 79.87817427 401.60236556 90.5052476 401.60448184 C109.46526593 401.60767303 128.42524671 401.59599686 147.38525391 401.57641602 C165.78956242 401.55741401 184.19382691 401.55032761 202.59814453 401.5559082 C222.6301532 401.56196436 242.6621425 401.5617917 262.69414955 401.55042237 C264.82975614 401.54921506 266.96536273 401.54800907 269.10096931 401.54680443 C270.15177612 401.54620089 271.20258292 401.54559735 272.28523235 401.54497552 C279.69538517 401.54109399 287.10553078 401.54149092 294.51568413 401.54339027 C303.54518355 401.5455112 312.57464439 401.54029598 321.60413294 401.52577672 C326.21240952 401.51852698 330.82062987 401.51446065 335.42891121 401.51902008 C339.64618406 401.52309118 343.86334076 401.51794611 348.08059598 401.505394 C349.60745836 401.5024619 351.13433167 401.50290512 352.66119128 401.50703708 C354.73504837 401.5121404 356.80851626 401.50496083 358.88234615 401.49470997 C360.61094448 401.4934098 360.61094448 401.4934098 362.37446398 401.49208337 C365.75120616 401.22485626 368.43340303 400.53919529 371.55688477 399.24023438 C374.49156742 394.91169599 373.81786963 389.37839633 373.79516602 384.33789062 C373.81058202 382.37629514 373.82688538 380.41470646 373.84399414 378.453125 C373.86045594 375.37427705 373.86936915 372.29592944 373.86230469 369.21704102 C373.85968235 366.23592003 373.88781574 363.2563096 373.92016602 360.27539062 C373.90995926 359.35959732 373.8997525 358.44380402 373.88923645 357.5002594 C373.95520163 353.1769081 374.16225371 350.13900282 376.87402344 346.65600586 C379.55688477 344.24023438 379.55688477 344.24023438 383.11938477 343.55273438 C386.55688477 344.24023438 386.55688477 344.24023438 388.73852539 346.14575195 C391.34058247 350.57393045 391.13122505 354.3889665 391.08813477 359.43945312 C391.09196167 360.42967972 391.09578857 361.41990631 391.09973145 362.44013977 C391.10244974 364.53391537 391.09509438 366.62772498 391.07836914 368.72143555 C391.05707253 371.89971335 391.07811516 375.07570122 391.10375977 378.25390625 C391.10111426 380.29492681 391.09598467 382.33594595 391.08813477 384.37695312 C391.09623169 385.31584885 391.10432861 386.25474457 391.1126709 387.22209167 C390.9831961 396.50565191 388.26457118 404.68499538 381.55688477 411.24023438 C375.3163171 415.82412439 370.78994263 417.36182858 363.01746941 417.37724876 C362.35907263 417.37990059 361.70067585 417.38255242 361.02232766 417.3852846 C358.80660863 417.39297037 356.59094509 417.3935365 354.37521362 417.39413452 C352.7743399 417.39814962 351.1734672 417.40258792 349.57259572 417.40741408 C345.16572776 417.4193801 340.75887076 417.42502809 336.35198975 417.42959523 C331.60198753 417.43555117 326.8519984 417.44716099 322.102005 417.45788574 C310.62707416 417.48240918 299.15213899 417.49703642 287.67719001 417.50994581 C284.43648528 417.51365766 281.19578099 417.51763089 277.95507669 417.52169847 C257.83291392 417.54693391 237.71075047 417.5689881 217.58857536 417.58142662 C212.92762118 417.58435634 208.26666702 417.587318 203.60571289 417.59033203 C202.44724885 417.59107808 201.28878482 417.59182413 200.09521581 417.59259279 C181.32661987 417.60524783 162.55811864 417.63847308 143.78956698 417.68013386 C124.52267999 417.72255046 105.25584149 417.7461213 85.98890793 417.75134718 C75.17025339 417.7547615 64.35174687 417.76651935 53.53313828 417.79944992 C44.31997813 417.8274477 35.10699635 417.83845089 25.89379697 417.82725446 C21.1937693 417.82206724 16.49411519 417.82495882 11.79414177 417.84972 C7.48825059 417.8722155 3.18300126 417.87147046 -1.12290119 417.85251613 C-2.67746682 417.84971654 -4.23207601 417.85531245 -5.78657164 417.87032907 C-15.68655239 417.96008774 -24.03180964 417.28358513 -31.57810128 410.25042188 C-39.77238724 401.68029932 -39.88195307 393.59657085 -39.83752441 382.19132996 C-39.84241558 380.64148606 -39.84860644 379.09164582 -39.8559823 377.54181176 C-39.87237646 373.28988665 -39.87006497 369.03814702 -39.86460733 364.78620136 C-39.86193648 360.19779174 -39.87647001 355.6094315 -39.88870239 351.02104187 C-39.90975651 342.03426826 -39.91429724 333.04755916 -39.91251451 324.0607638 C-39.91120683 316.755516 -39.91501134 309.45028833 -39.92243958 302.14504433 C-39.92453878 300.04067193 -39.92663638 297.93629952 -39.9287324 295.83192712 C-39.92977592 294.78451332 -39.93081945 293.73709952 -39.9318946 292.65794591 C-39.95079704 272.84841979 -39.94974681 253.0389307 -39.94292527 233.2293993 C-39.93735031 215.11086817 -39.95817329 196.99247845 -39.99128574 178.87398037 C-40.02502694 160.26691409 -40.0401905 141.65991556 -40.03556871 123.05281812 C-40.0333244 112.60757483 -40.03856166 102.16246225 -40.0634613 91.7172451 C-40.08447999 82.82437015 -40.08806078 73.93169755 -40.06916171 65.03881427 C-40.06000725 60.50281937 -40.0588519 55.96720172 -40.07951736 51.43123627 C-40.09824169 47.27532197 -40.09370791 43.12009349 -40.07097155 38.96420518 C-40.06678943 37.46424541 -40.07097285 35.96423291 -40.08456749 34.46432891 C-40.17033828 24.30591037 -38.95568482 16.49459622 -32.16186523 8.58398438 C-31.42967773 7.97554688 -30.69749023 7.36710937 -29.94311523 6.74023438 C-29.21092773 6.11117187 -28.47874023 5.48210937 -27.72436523 4.83398438 C-19.61671638 -0.83026346 -9.48119624 0.02643763 0 0 Z " fill="#000000" transform="translate(39.443115234375,94.759765625)"/>
<path d="M0 0 C1.35663506 -0.0098568 1.35663506 -0.0098568 2.74067688 -0.01991272 C5.73768191 -0.03964342 8.7346368 -0.05130879 11.73168945 -0.0612793 C13.26817611 -0.06739259 13.26817611 -0.06739259 14.8357029 -0.07362938 C20.25895613 -0.09449069 25.68218407 -0.10879129 31.10546875 -0.11816406 C36.69969965 -0.12921925 42.29353178 -0.16360894 47.88762188 -0.20333576 C52.19514186 -0.22951779 56.50256713 -0.2378574 60.81015968 -0.24144554 C62.87177023 -0.24630859 64.93337663 -0.25791449 66.99490929 -0.27648354 C69.88624757 -0.30090489 72.7765583 -0.29990419 75.66796875 -0.29296875 C76.93620987 -0.31218384 76.93620987 -0.31218384 78.23007202 -0.33178711 C84.58325219 -0.27647649 90.00993359 1.19338965 94.7217207 5.65978527 C99.0776595 10.67063483 99.31230502 14.83336609 99.33447266 21.19335938 C99.34104385 22.01000061 99.34761505 22.82664185 99.35438538 23.66802979 C99.37410783 26.37284438 99.3857799 29.07760342 99.39575195 31.7824707 C99.39982748 32.70750208 99.40390301 33.63253345 99.40810204 34.58559608 C99.42896034 39.48365683 99.44326194 44.3816896 99.45263672 49.27978516 C99.46368827 54.3292282 99.49807438 59.37822901 99.53780842 64.42751598 C99.56400656 68.31812842 99.5723315 72.20863611 99.5759182 76.09932899 C99.58077749 77.95998425 99.5923727 79.82063504 99.61095619 81.68120384 C99.63541135 84.29237831 99.63437098 86.90241697 99.62744141 89.51367188 C99.64025146 90.27500931 99.65306152 91.03634674 99.66625977 91.820755 C99.61341695 97.31418521 98.51442691 101.74150161 95.1574707 106.17700195 C89.7924085 111.18963208 84.4485392 111.90263735 77.34838867 111.80810547 C76.4010083 111.81526077 75.45362793 111.82241608 74.47753906 111.82978821 C71.36774455 111.84660148 68.25940639 111.82731833 65.1496582 111.8059082 C62.97828045 111.80673744 60.80690276 111.80919888 58.63552856 111.81321716 C54.09463508 111.81606995 49.55423628 111.80142177 45.01342773 111.77392578 C39.19820593 111.73980367 33.38386595 111.74587995 27.56860161 111.76458836 C23.08868072 111.77516347 18.60896452 111.76621644 14.12906265 111.75120354 C11.98489108 111.7460278 9.84069809 111.74649612 7.69652939 111.75274849 C4.69980723 111.75820835 1.70434248 111.73780158 -1.29223633 111.71044922 C-2.17446869 111.7169751 -3.05670105 111.72350098 -3.96566772 111.73022461 C-9.41075098 111.64586087 -12.51718361 110.78788143 -16.8425293 107.17700195 C-21.60486591 101.89981813 -21.99618545 97.83298032 -22.01953125 90.9453125 C-22.02610245 90.10595154 -22.03267365 89.26659058 -22.03944397 88.40179443 C-22.05916417 85.62243561 -22.0708363 82.84313078 -22.08081055 80.0637207 C-22.08488607 79.1141279 -22.0889616 78.1645351 -22.09316063 77.18616676 C-22.11401523 72.16073448 -22.12831998 67.13532947 -22.13769531 62.10986328 C-22.14876262 56.92122484 -22.18316802 51.73301492 -22.22286701 46.54452801 C-22.24901837 42.55277207 -22.2573858 38.56111851 -22.26097679 34.56928444 C-22.26584603 32.65673743 -22.27746962 30.74419509 -22.29601479 28.8317318 C-22.32037636 26.15310101 -22.31944686 23.47558278 -22.3125 20.796875 C-22.32531006 20.00964554 -22.33812012 19.22241608 -22.35131836 18.41133118 C-22.29498441 12.4407496 -20.47109624 8.88269066 -16.24487305 4.5324707 C-10.81763768 0.20515504 -6.72809264 0.02114408 0 0 Z " fill="#DB626D" transform="translate(167.842529296875,253.822998046875)"/>
<path d="M0 0 C1.14020426 -0.00538554 2.28040853 -0.01077108 3.45516443 -0.01631981 C7.27828398 -0.03063477 11.10105901 -0.02348671 14.92419434 -0.01637268 C17.6640869 -0.02043065 20.40396183 -0.02893707 23.1438446 -0.03717041 C29.81465274 -0.05436026 36.48536669 -0.05519814 43.15619123 -0.04995751 C48.57791752 -0.04591532 53.99961598 -0.04735993 59.42134094 -0.05270576 C60.57901171 -0.0538284 60.57901171 -0.0538284 61.76006976 -0.05497371 C63.32794917 -0.05650519 64.89582858 -0.05804354 66.46370798 -0.05958868 C81.16416129 -0.0733141 95.86456137 -0.06787548 110.56501347 -0.05640347 C124.01423983 -0.04646851 137.46332867 -0.05941618 150.91253382 -0.08333766 C164.72377863 -0.10771797 178.53495936 -0.11733932 192.34622526 -0.11068493 C200.09961669 -0.10719065 207.8529023 -0.10943862 215.60627747 -0.12693596 C222.20570341 -0.14164451 228.80494902 -0.14231102 235.40437138 -0.12486505 C238.77133667 -0.11634169 242.1377145 -0.11639804 245.50470543 -0.1295166 C249.15472926 -0.14265409 252.803872 -0.13124192 256.45385742 -0.11352539 C257.51786223 -0.1231304 258.58186704 -0.1327354 259.67811441 -0.14263147 C266.74771975 -0.07184052 270.29443008 0.97964104 275.37145996 6.02049255 C278.29809147 9.75953348 279.8486529 11.77930717 279.86737061 16.49809265 C279.87308075 17.35882889 279.87879089 18.21956512 279.88467407 19.10638428 C279.88579193 20.05289352 279.88690979 20.99940277 279.88806152 21.97459412 C279.89302643 22.96986618 279.89799133 23.96513824 279.90310669 24.99057007 C279.91775363 28.29482201 279.92453509 31.59902593 279.93005371 34.90330505 C279.93580377 37.1953583 279.94156152 39.48741152 279.94732666 41.77946472 C279.95784433 46.59141769 279.96368175 51.40335392 279.96716309 56.21531677 C279.97264459 62.38028103 279.99666222 68.54502406 280.02513504 74.70991898 C280.04376395 79.44713485 280.0489672 84.18429752 280.05049896 88.92154694 C280.05352624 91.19412697 280.06155725 93.46670605 280.07468414 95.73925018 C280.09174698 98.92073342 280.08986341 102.10167738 280.08337402 105.28318787 C280.09258881 106.22160019 280.10180359 107.16001251 280.11129761 108.12686157 C280.07259841 114.18636486 279.25636396 118.58828187 275.04333496 123.2509613 C274.4645459 123.72920349 273.88575684 124.20744568 273.28942871 124.70018005 C272.71321777 125.19131287 272.13700684 125.68244568 271.54333496 126.1884613 C268.20405431 128.39310466 264.854041 128.51375262 260.93107224 128.52469444 C259.96314106 128.52976899 258.99520988 128.53484353 257.99794745 128.54007185 C256.9372631 128.5405696 255.87657875 128.54106736 254.78375244 128.5415802 C253.65483526 128.54596245 252.52591809 128.55034471 251.3627913 128.55485976 C247.5658745 128.56825412 243.7689809 128.57442804 239.9720459 128.58055115 C237.25540385 128.58792553 234.53876665 128.59671536 231.8221283 128.60533142 C223.6605512 128.62983631 215.49896805 128.64447852 207.33736551 128.65739149 C205.03195905 128.66110442 202.7265532 128.66507756 200.42114735 128.66914415 C186.10208931 128.69437856 171.78303029 128.7164296 157.46395493 128.7288723 C154.14845527 128.73180194 150.83295564 128.73476361 147.51745605 128.73777771 C146.28139635 128.73889679 146.28139635 128.73889679 145.02036574 128.74003847 C131.66934906 128.75269404 118.31846548 128.78592127 104.96751103 128.82757954 C91.25803443 128.87000568 77.54862598 128.89356799 63.83908391 128.89879286 C56.14255792 128.9022059 48.44624009 128.91394855 40.74977875 128.9468956 C34.19573888 128.97490649 27.64194985 128.98589091 21.08785477 128.97470014 C17.74482756 128.96951611 14.40275078 128.97511211 11.05972862 128.99716568 C7.43205978 129.019795 3.80571462 129.0115892 0.17803955 128.99568176 C-0.87372192 129.00956385 -1.92548338 129.02344594 -3.00911641 129.03774869 C-9.62838969 128.96622245 -14.20762807 127.79474852 -19.27307129 123.38768005 C-23.75568076 118.11696019 -23.85756581 112.78410942 -23.8223877 106.08128357 C-23.83260956 105.06898682 -23.84283142 104.05669006 -23.85336304 103.01371765 C-23.88107031 99.68109725 -23.87924848 96.34930791 -23.87463379 93.0165863 C-23.88241194 90.69162694 -23.89108216 88.3666704 -23.90060425 86.04171753 C-23.91551007 81.17379026 -23.91495952 76.30615315 -23.90441895 71.43821716 C-23.8928271 65.20933158 -23.92670424 58.98163493 -23.97310829 52.7529459 C-24.00261374 47.95297335 -24.0043224 43.15328623 -23.99808884 38.35323906 C-23.99911358 36.0571806 -24.00955764 33.7611058 -24.02971268 31.46513557 C-24.05447187 28.25046772 -24.04084611 25.03810381 -24.0177002 21.82347107 C-24.03298767 20.88140305 -24.04827515 19.93933502 -24.06402588 18.96871948 C-23.97147035 13.13400047 -22.74839784 9.6639132 -19.14533043 5.06376553 C-13.27071386 -0.19531388 -7.48628722 -0.04228639 0 0 Z M-8.27307129 15.38768005 C-8.29619261 28.0176349 -8.31398529 40.64758476 -8.32488346 53.27755642 C-8.33011275 59.14150169 -8.33721123 65.00543254 -8.34851074 70.86936951 C-8.35933799 76.52329717 -8.36534778 82.17721092 -8.36794853 87.83114815 C-8.36980308 89.99341616 -8.37342424 92.15568336 -8.37880135 94.31794548 C-8.38600961 97.33526663 -8.38706232 100.35252949 -8.38659668 103.36985779 C-8.39019196 104.27328415 -8.39378723 105.17671051 -8.39749146 106.10751343 C-8.78846584 110.06321908 -8.78846584 110.06321908 -7.27307129 113.38768005 C-5.82489341 113.48523857 -4.37196955 113.51323463 -2.92050934 113.51352119 C-1.97513479 113.51612894 -1.02976024 113.51873669 -0.05573797 113.52142346 C1.52054007 113.51807738 1.52054007 113.51807738 3.12866211 113.5146637 C4.78884943 113.51700368 4.78884943 113.51700368 6.48257589 113.51939094 C10.22224317 113.52340616 13.96187045 113.52020928 17.70153809 113.51707458 C20.36998108 113.51842839 23.03842125 113.52017179 25.7068634 113.52238464 C32.22091268 113.52684306 38.73495046 113.52586556 45.24900019 113.522972 C50.54073152 113.52071825 55.83245962 113.52040533 61.12419128 113.52149582 C61.87588997 113.52164905 62.62758865 113.52180229 63.40206608 113.52196016 C64.92888582 113.52227987 66.45570555 113.52260408 67.98252529 113.52293275 C82.31653551 113.52578775 96.65053934 113.52250021 110.98454851 113.51713239 C123.2972787 113.51266433 135.60999947 113.51344026 147.92272949 113.51805115 C162.20368114 113.52339656 176.48462719 113.52551306 190.7655797 113.52243888 C192.28694185 113.52212032 193.80830399 113.52180595 195.32966614 113.52149582 C196.45262341 113.52126441 196.45262341 113.52126441 197.59826669 113.52102832 C202.88673543 113.52016306 208.17520063 113.52162622 213.46366882 113.52397537 C219.90410173 113.5267732 226.34452245 113.52603547 232.78495395 113.52069463 C236.07412563 113.51805738 239.36327262 113.5175867 242.65244484 113.52034378 C246.21004904 113.52305213 249.76759489 113.51967803 253.32519531 113.5146637 C254.37604734 113.51689442 255.42689937 113.51912514 256.50959539 113.52142346 C257.45496994 113.51881571 258.4003445 113.51620796 259.37436676 113.51352119 C260.19667864 113.51335884 261.01899053 113.51319649 261.86622095 113.51302922 C263.74231441 113.59162109 263.74231441 113.59162109 264.72692871 112.38768005 C264.82754141 109.41006636 264.86307764 106.45560838 264.85632324 103.4775238 C264.85807556 102.5426413 264.85982788 101.60775879 264.8616333 100.64454651 C264.86605345 97.53807243 264.86311325 94.43165476 264.85974121 91.32518005 C264.8604142 89.17666106 264.86138419 87.02814214 264.86264038 84.87962341 C264.86411758 80.37025734 264.86196211 75.86091103 264.8572998 71.35154724 C264.85160251 65.55719428 264.8548814 59.76288764 264.86087227 53.96853638 C264.8644773 49.53005115 264.86333956 45.09157699 264.86074448 40.65309143 C264.86007505 38.51594538 264.86090418 36.37879834 264.86322403 34.24165344 C264.86574961 31.26035379 264.8619113 28.27913025 264.85632324 25.2978363 C264.85935959 23.95907944 264.85935959 23.95907944 264.86245728 22.59327698 C265.2390448 18.67672843 265.2390448 18.67672843 263.72692871 15.38768005 C262.2725707 15.29099754 260.81352401 15.26396208 259.35595608 15.26463223 C257.93174411 15.26164565 257.93174411 15.26164565 256.47876018 15.25859874 C255.42333509 15.26151159 254.36790999 15.26442443 253.28050232 15.26742554 C251.61313132 15.2661439 251.61313132 15.2661439 249.91207606 15.26483637 C246.15625251 15.26317831 242.40047281 15.26870825 238.64465332 15.27415466 C235.96473591 15.27443649 233.28482125 15.27432301 230.60490417 15.27371216 C224.81923397 15.27318673 219.03357501 15.27633549 213.24790764 15.28195 C204.88271054 15.29006245 196.51751891 15.29267995 188.15231831 15.29393799 C174.58172637 15.29612891 161.01114043 15.30279008 147.44055176 15.3122406 C134.25467967 15.32141368 121.0688092 15.32849502 107.88293457 15.33274841 C106.66463446 15.3331425 106.66463446 15.3331425 105.42172223 15.33354454 C101.34732549 15.33484954 97.27292874 15.33611326 93.19853199 15.33735645 C59.37465988 15.34773031 25.55079503 15.36534971 -8.27307129 15.38768005 Z " fill="#010101" transform="translate(169.2730712890625,109.61231994628906)"/>
<path d="M0 0 C5.61 0 11.22 0 17 0 C17.00364563 2.6941658 17.00729126 5.3883316 17.01104736 8.16413879 C17.04728559 33.54613884 17.10549347 58.9280207 17.18390274 84.30992603 C17.2236868 97.3592073 17.25608257 110.40842832 17.27099609 123.45776367 C17.28401581 134.83353664 17.3109889 146.209177 17.35461307 157.58487529 C17.3772204 163.60644067 17.3929111 169.62784253 17.39188385 175.64945412 C17.39113683 181.3220218 17.40910517 186.99422811 17.44116783 192.66670227 C17.44965726 194.74387653 17.4514233 196.82109137 17.44580269 198.89827538 C17.21329083 216.11552952 17.21329083 216.11552952 24.375 231.4375 C30.02109804 236.94916714 35.65136838 240.24299498 43.59718037 240.26171303 C44.7183388 240.26917852 45.83949723 240.27664401 46.99463016 240.28433573 C48.22127846 240.282401 49.44792676 240.28046626 50.71174622 240.2784729 C52.01867154 240.2842653 53.32559687 240.2900577 54.672126 240.29602563 C58.29794701 240.31182941 61.92369054 240.31525652 65.54954183 240.31667423 C69.46021506 240.32036762 73.37084575 240.3355228 77.28149414 240.34928894 C84.05637479 240.37156751 90.83124032 240.3865772 97.60614967 240.39665604 C107.40153721 240.41123884 117.19687207 240.43677455 126.99222871 240.46498732 C142.88437225 240.51046255 158.77652338 240.54707434 174.66870117 240.578125 C190.10686576 240.60830755 205.54501179 240.64265646 220.9831543 240.68261719 C221.93469227 240.68507874 222.88623024 240.68754028 223.8666027 240.69007643 C228.64016843 240.70245097 233.41373395 240.71490751 238.18729937 240.72740483 C277.79150734 240.83098357 317.39573777 240.92003576 357 241 C357 246.94 357 252.88 357 259 C316.80332549 259.06846482 276.60666016 259.121543 236.40993894 259.15319599 C231.66237131 259.15694803 226.91480379 259.160831 222.16723633 259.16479492 C221.22209686 259.16558185 220.27695739 259.16636878 219.30317733 259.16717956 C204.0075557 259.18022695 188.71196796 259.20387712 173.41636642 259.23145839 C157.71705314 259.25953115 142.01775758 259.27618022 126.31842023 259.28226548 C116.63418052 259.28637804 106.9500366 259.29935871 97.26582638 259.3237494 C90.62143743 259.33962967 83.97709788 259.34439517 77.33269133 259.34050413 C73.50148381 259.33858615 69.67044348 259.34148831 65.83926582 259.35761642 C61.67851728 259.37500331 57.51812236 259.36894312 53.35734558 259.36076355 C52.15595623 259.36950207 50.95456687 259.3782406 49.71677178 259.38724393 C36.59766627 259.31765891 23.51189161 255.8930696 13.65625 246.78125 C4.20395403 236.6155732 -0.16761822 224.89644011 -0.12025452 211.16693115 C-0.12110894 210.26513193 -0.12196337 209.36333272 -0.12284368 208.43420625 C-0.12449346 205.40631273 -0.11898528 202.37847437 -0.11352539 199.35058594 C-0.11324338 197.18253582 -0.11340151 195.01448561 -0.1139679 192.84643555 C-0.11425535 186.95429001 -0.10836701 181.06216474 -0.10139394 175.17002392 C-0.09515174 169.01473785 -0.09455591 162.85945134 -0.09336853 156.7041626 C-0.09025778 145.04535488 -0.08204782 133.38655652 -0.07201904 121.72775292 C-0.06084998 108.45584606 -0.05534545 95.18393927 -0.05032361 81.91202879 C-0.03986501 54.60801383 -0.02206957 27.30400783 0 0 Z " fill="#94D5A3" transform="translate(65,175)"/>
<path d="M0 0 C6.27 0 12.54 0 19 0 C19.00238835 1.57482147 19.00477671 3.14964294 19.00723743 4.77218628 C19.06459733 42.1553105 19.13732793 79.53837783 19.22898628 116.92143434 C19.24025444 121.52265518 19.2513929 126.12387631 19.26245117 130.72509766 C19.26465486 131.64111791 19.26685854 132.55713816 19.269129 133.5009166 C19.30450131 148.3329482 19.32936582 163.16497975 19.35034702 177.99703789 C19.37210959 193.21611729 19.40516436 208.43514196 19.44870156 223.6541748 C19.47521039 233.04511695 19.49291143 242.4359909 19.49934604 251.82696861 C19.50460226 258.26672797 19.52082715 264.70640151 19.54566566 271.14611489 C19.55967261 274.86148668 19.56885449 278.57670487 19.56500816 282.29210472 C19.56096222 286.32258519 19.58001924 290.35263028 19.60127258 294.38305664 C19.59642501 295.55427504 19.59157743 296.72549343 19.58658296 297.93220329 C19.64238356 304.33645934 20.31854304 309.16211757 23 315 C9.04956589 315.68796661 9.04956589 315.68796661 5.3125 313.375 C-0.74357928 307.1552429 -0.42216457 300.9152841 -0.36076355 292.69949341 C-0.36332682 291.44888339 -0.3658901 290.19827337 -0.36853105 288.90976608 C-0.37522954 285.44573734 -0.36325233 281.98198761 -0.34819686 278.5179944 C-0.33523149 274.77982384 -0.33962632 271.04166878 -0.34190369 267.30348206 C-0.3434761 260.8292379 -0.33407021 254.35508451 -0.31719017 247.88086319 C-0.29280046 238.52026159 -0.28499493 229.15970385 -0.2812262 219.79907392 C-0.27466167 204.61179264 -0.25470046 189.42455971 -0.22631836 174.23730469 C-0.19877783 159.4850285 -0.17754422 144.73276546 -0.16479492 129.98046875 C-0.16400675 129.07101144 -0.16321858 128.16155413 -0.16240653 127.22453751 C-0.15849139 122.66201966 -0.15470027 118.09950173 -0.15097082 113.53698373 C-0.11987487 75.69128801 -0.06681588 37.84564855 0 0 Z " fill="#95D6A3" transform="translate(15,182)"/>
<path d="M0 0 C1.35663506 -0.0098568 1.35663506 -0.0098568 2.74067688 -0.01991272 C5.73768191 -0.03964342 8.7346368 -0.05130879 11.73168945 -0.0612793 C13.26817611 -0.06739259 13.26817611 -0.06739259 14.8357029 -0.07362938 C20.25895613 -0.09449069 25.68218407 -0.10879129 31.10546875 -0.11816406 C36.69969965 -0.12921925 42.29353178 -0.16360894 47.88762188 -0.20333576 C52.19514186 -0.22951779 56.50256713 -0.2378574 60.81015968 -0.24144554 C62.87177023 -0.24630859 64.93337663 -0.25791449 66.99490929 -0.27648354 C69.88624757 -0.30090489 72.7765583 -0.29990419 75.66796875 -0.29296875 C76.93620987 -0.31218384 76.93620987 -0.31218384 78.23007202 -0.33178711 C84.58325219 -0.27647649 90.00993359 1.19338965 94.7217207 5.65978527 C99.0776595 10.67063483 99.31230502 14.83336609 99.33447266 21.19335938 C99.34104385 22.01000061 99.34761505 22.82664185 99.35438538 23.66802979 C99.37410783 26.37284438 99.3857799 29.07760342 99.39575195 31.7824707 C99.39982748 32.70750208 99.40390301 33.63253345 99.40810204 34.58559608 C99.42896034 39.48365683 99.44326194 44.3816896 99.45263672 49.27978516 C99.46368827 54.3292282 99.49807438 59.37822901 99.53780842 64.42751598 C99.56400656 68.31812842 99.5723315 72.20863611 99.5759182 76.09932899 C99.58077749 77.95998425 99.5923727 79.82063504 99.61095619 81.68120384 C99.63541135 84.29237831 99.63437098 86.90241697 99.62744141 89.51367188 C99.64025146 90.27500931 99.65306152 91.03634674 99.66625977 91.820755 C99.61341695 97.31418521 98.51442691 101.74150161 95.1574707 106.17700195 C89.7924085 111.18963208 84.4485392 111.90263735 77.34838867 111.80810547 C76.4010083 111.81526077 75.45362793 111.82241608 74.47753906 111.82978821 C71.36774455 111.84660148 68.25940639 111.82731833 65.1496582 111.8059082 C62.97828045 111.80673744 60.80690276 111.80919888 58.63552856 111.81321716 C54.09463508 111.81606995 49.55423628 111.80142177 45.01342773 111.77392578 C39.19820593 111.73980367 33.38386595 111.74587995 27.56860161 111.76458836 C23.08868072 111.77516347 18.60896452 111.76621644 14.12906265 111.75120354 C11.98489108 111.7460278 9.84069809 111.74649612 7.69652939 111.75274849 C4.69980723 111.75820835 1.70434248 111.73780158 -1.29223633 111.71044922 C-2.17446869 111.7169751 -3.05670105 111.72350098 -3.96566772 111.73022461 C-9.41075098 111.64586087 -12.51718361 110.78788143 -16.8425293 107.17700195 C-21.60486591 101.89981813 -21.99618545 97.83298032 -22.01953125 90.9453125 C-22.02610245 90.10595154 -22.03267365 89.26659058 -22.03944397 88.40179443 C-22.05916417 85.62243561 -22.0708363 82.84313078 -22.08081055 80.0637207 C-22.08488607 79.1141279 -22.0889616 78.1645351 -22.09316063 77.18616676 C-22.11401523 72.16073448 -22.12831998 67.13532947 -22.13769531 62.10986328 C-22.14876262 56.92122484 -22.18316802 51.73301492 -22.22286701 46.54452801 C-22.24901837 42.55277207 -22.2573858 38.56111851 -22.26097679 34.56928444 C-22.26584603 32.65673743 -22.27746962 30.74419509 -22.29601479 28.8317318 C-22.32037636 26.15310101 -22.31944686 23.47558278 -22.3125 20.796875 C-22.32531006 20.00964554 -22.33812012 19.22241608 -22.35131836 18.41133118 C-22.29498441 12.4407496 -20.47109624 8.88269066 -16.24487305 4.5324707 C-10.81763768 0.20515504 -6.72809264 0.02114408 0 0 Z M-6.8425293 16.17700195 C-6.93755346 18.67192583 -6.96810495 21.1390621 -6.95605469 23.63427734 C-6.95620071 24.41470901 -6.95634674 25.19514069 -6.95649719 25.9992218 C-6.95579788 28.59106175 -6.94800466 31.18283074 -6.94018555 33.7746582 C-6.93832143 35.56684836 -6.9368975 37.35903902 -6.93589783 39.15122986 C-6.93207213 43.87770993 -6.92224142 48.60415947 -6.91119385 53.33062744 C-6.90098083 58.14985745 -6.89640044 62.96909237 -6.89135742 67.78833008 C-6.88061919 77.25123415 -6.86354216 86.71411552 -6.8425293 96.17700195 C4.87473858 96.2001241 16.59200107 96.21791638 28.30928707 96.22881413 C33.74949382 96.23404323 39.18968502 96.24114138 44.62988281 96.25244141 C49.87532772 96.2632693 55.12075763 96.26927858 60.36621284 96.2718792 C62.37218016 96.27373362 64.37814662 96.27735457 66.38410759 96.28273201 C69.18349895 96.28994114 71.98282749 96.29099295 74.78222656 96.29052734 C75.62019775 96.29412262 76.45816895 96.2977179 77.3215332 96.30142212 C81.04250501 96.65378901 81.04250501 96.65378901 84.1574707 95.17700195 C84.2577895 92.71794974 84.2936525 90.28696768 84.28686523 87.82739258 C84.28861755 87.05832077 84.29036987 86.28924896 84.29217529 85.49687195 C84.2965941 82.94230932 84.29365573 80.38781534 84.2902832 77.83325195 C84.29095623 76.06587714 84.29192625 74.29850242 84.29318237 72.53112793 C84.29465938 68.82209392 84.29250469 65.11308395 84.2878418 61.40405273 C84.28214451 56.63877703 84.28542349 51.87355764 84.29141426 47.108284 C84.29501979 43.45729138 84.29388133 39.80631222 84.29128647 36.15531921 C84.29061718 34.39776096 84.2914457 32.6402015 84.29376602 30.88264465 C84.29629241 28.43060041 84.29245217 25.97864865 84.28686523 23.52661133 C84.28990158 22.42629829 84.28990158 22.42629829 84.29299927 21.30375671 C84.57322428 17.95562812 84.57322428 17.95562812 83.1574707 15.17700195 C80.39345663 15.07649982 77.65439844 15.0408412 74.88989258 15.04760742 C74.02328506 15.0458551 73.15667755 15.04410278 72.2638092 15.04229736 C69.38459297 15.03787771 66.50543762 15.04081723 63.6262207 15.04418945 C61.63464343 15.04351645 59.64306624 15.04254645 57.65148926 15.04129028 C53.47167175 15.03981316 49.29187558 15.04196834 45.11206055 15.04663086 C39.74144544 15.05232815 34.3708803 15.04904923 29.00026703 15.0430584 C24.8860435 15.03945318 20.77183191 15.04059118 16.65760803 15.04318619 C14.67676284 15.04385557 12.69591658 15.04302665 10.71507263 15.04070663 C7.95170195 15.03818076 5.18841336 15.04201977 2.42504883 15.04760742 C1.59799942 15.04558319 0.77095001 15.04355896 -0.0811615 15.04147339 C-3.76309655 14.70381447 -3.76309655 14.70381447 -6.8425293 16.17700195 Z " fill="#030202" transform="translate(167.842529296875,253.822998046875)"/>
<path d="M0 0 C6.27 0 12.54 0 19 0 C19 95.37 19 190.74 19 289 C18.67 289 18.34 289 18 289 C18 217.06 18 145.12 18 71 C12.06 71 6.12 71 0 71 C-0.99 69.35 -1.98 67.7 -3 66 C-5.30583369 64.84708316 -6.69866887 64.84602662 -9.26611328 64.79467773 C-10.14687531 64.77473251 -11.02763733 64.75478729 -11.93508911 64.73423767 C-12.88721283 64.71752518 -13.83933655 64.70081268 -14.8203125 64.68359375 C-15.79410858 64.66281265 -16.76790466 64.64203156 -17.77120972 64.62062073 C-20.88906647 64.55511402 -24.00700903 64.49623503 -27.125 64.4375 C-29.23568604 64.39431585 -31.34636333 64.3507016 -33.45703125 64.30664062 C-38.6379295 64.19943153 -43.81891356 64.09766722 -49 64 C-49.15255641 57.29253393 -49.25738483 50.58551768 -49.32958984 43.87670898 C-49.35970005 41.59626547 -49.400598 39.31593718 -49.45263672 37.03588867 C-49.52570271 33.75150079 -49.55951502 30.46864813 -49.5859375 27.18359375 C-49.61690521 26.16978134 -49.64787292 25.15596893 -49.67977905 24.11143494 C-49.6826699 17.98467342 -48.83285465 14.65364039 -44.48721313 10.23573303 C-41.07067491 7.39691387 -37.52498474 7.79617509 -33.2890625 7.71875 C-32.52451752 7.70034058 -31.75997253 7.68193115 -30.97225952 7.66296387 C-28.52325206 7.60415098 -26.07417391 7.55138463 -23.625 7.5 C-20.40871058 7.43222864 -17.19263667 7.35849629 -13.9765625 7.28125 C-12.86856796 7.26088684 -12.86856796 7.26088684 -11.7381897 7.2401123 C-6.69679997 7.35137379 -6.69679997 7.35137379 -2 6 C-1.34 4.02 -0.68 2.04 0 0 Z " fill="#FBCD62" transform="translate(64,103)"/>
<path d="M0 0 C7.6608674 5.24298566 12.50466131 12.07562277 15 21 C16.24797798 32.58649028 14.47981538 42.64729 7.1875 51.9375 C0.07873235 59.37186007 -9.18951222 62.95775101 -19.375 63.5 C-28.47422092 63.20398574 -36.77040443 59.19392884 -43.31640625 52.9609375 C-46.17532307 49.63106222 -48.18579772 45.97999415 -50 42 C-50.36609375 41.24460938 -50.7321875 40.48921875 -51.109375 39.7109375 C-53.40181336 32.73307689 -53.208309 22.75271978 -50.375 16 C-49.25390625 13.94921875 -49.25390625 13.94921875 -48 12 C-47.57589844 11.30519531 -47.15179688 10.61039063 -46.71484375 9.89453125 C-35.93096512 -6.11607408 -16.35888008 -9.28096921 0 0 Z " fill="#020303" transform="translate(329,145)"/>
<path d="M0 0 C0.98548828 -0.00644531 1.97097656 -0.01289063 2.98632812 -0.01953125 C4.00533203 -0.00019531 5.02433594 0.01914063 6.07421875 0.0390625 C7.08162109 0.01972656 8.08902344 0.00039062 9.12695312 -0.01953125 C16.75655412 0.03017299 21.79112111 1.80377695 27.28198242 7.14208984 C30.90553452 11.21295374 32.61157364 14.63710351 33.01171875 20.0390625 C32.76171875 23.6640625 32.76171875 23.6640625 31.44921875 27.1640625 C30.4249566 30.47492374 30.4249566 30.47492374 31.70703125 32.51953125 C33.04033777 34.35422417 33.04033777 34.35422417 34.5 35.98828125 C38.08428309 40.74883062 37.50083593 48.05381116 36.76171875 53.6640625 C33.82458363 60.54447938 29.17425559 64.61636309 22.44165039 67.74072266 C17.50942992 69.4400629 12.36745344 69.03317948 7.19921875 69.0390625 C5.49475586 69.07580078 5.49475586 69.07580078 3.75585938 69.11328125 C2.66337891 69.11714844 1.57089844 69.12101562 0.4453125 69.125 C-0.54927979 69.13321777 -1.54387207 69.14143555 -2.56860352 69.14990234 C-5.95103349 68.53435267 -7.09781943 67.29211987 -9.23828125 64.6640625 C-10.52957859 62.08146783 -10.39369984 60.17600508 -10.43115234 57.28393555 C-10.44721527 56.15904221 -10.4632782 55.03414886 -10.47982788 53.87516785 C-10.52419601 48.72840159 -10.56578227 43.58172449 -10.58837891 38.43481445 C-10.60171336 35.71767471 -10.62955507 33.0012869 -10.67041016 30.28442383 C-10.72922293 26.3732302 -10.74704088 22.46240198 -10.76171875 18.55078125 C-10.78438812 17.33605637 -10.8070575 16.12133148 -10.83041382 14.86979675 C-10.8094083 6.50934065 -10.8094083 6.50934065 -8.03295898 2.40014648 C-5.04082443 0.54140019 -3.48865727 0.02219449 0 0 Z " fill="#020303" transform="translate(187.23828125,139.3359375)"/>
<path d="M0 0 C2.36850408 2.07327978 3.11626427 3.77134975 3.75390625 6.83203125 C2.91144416 10.8758493 1.39490644 12.36438666 -1.87109375 14.83203125 C-5.57982112 15.71041405 -6.84733322 14.84665311 -10.12109375 12.83203125 C-14.3359171 10.27205178 -18.04747242 10.01151834 -22.87109375 10.83203125 C-29.24586538 12.93818371 -32.9802457 16.23941996 -36.12109375 22.20703125 C-37.89766532 28.42503174 -36.81316581 33.14562853 -34.07421875 38.81640625 C-31.47948666 43.16342494 -27.65253481 45.46590523 -22.87109375 46.83203125 C-17.62443631 47.30900011 -14.31264486 46.69436419 -9.87109375 43.83203125 C-7.38586387 41.14529624 -6.02926995 39.30655986 -4.87109375 35.83203125 C-6.00998047 35.88423828 -6.00998047 35.88423828 -7.171875 35.9375 C-8.16574219 35.96457031 -9.15960938 35.99164063 -10.18359375 36.01953125 C-11.16972656 36.05433594 -12.15585937 36.08914062 -13.171875 36.125 C-15.87109375 35.83203125 -15.87109375 35.83203125 -17.6953125 34.56640625 C-19.33997876 32.14038692 -19.3321878 29.73587237 -19.46484375 26.8671875 C-18.47985085 23.49099473 -16.89221374 22.57146397 -13.87109375 20.83203125 C-10.5244805 20.23288669 -7.26357087 20.22773987 -3.87109375 20.26953125 C-2.98164063 20.24568359 -2.0921875 20.22183594 -1.17578125 20.19726562 C3.30181543 20.2072901 5.49808574 20.37985018 9.21875 23.046875 C12.35445821 27.61898125 11.8803686 31.48751867 11.12890625 36.83203125 C8.95454215 45.78458065 4.95621471 53.56849287 -2.87109375 58.70703125 C-10.72601018 63.09220076 -18.74368666 64.38149051 -27.58984375 62.14453125 C-37.34506237 58.53148732 -45.41968475 52.24716777 -49.87109375 42.68359375 C-53.34692663 33.69321831 -54.34248313 25.86038407 -50.80859375 16.70703125 C-46.82632885 7.96848377 -40.54238933 0.62676318 -31.55859375 -3.13671875 C-20.8266501 -6.75874973 -9.80188884 -6.11850681 0 0 Z " fill="#030303" transform="translate(405.87109375,145.16796875)"/>
<path d="M0 0 C3.76556938 1.36691218 7.30063014 3.13593218 10.875 4.9375 C11.88280518 5.43531982 12.89061035 5.93313965 13.92895508 6.44604492 C15.97880965 7.46374812 18.02515832 8.48854459 20.06787109 9.52050781 C22.75098907 10.87435419 25.44567397 12.20135318 28.14453125 13.5234375 C29.65993942 14.28430066 31.17433383 15.04718776 32.6875 15.8125 C33.71883057 16.31608032 33.71883057 16.31608032 34.77099609 16.82983398 C39.24920147 19.15738945 41.6398437 21.54775453 44 26 C45.00983796 32.36197917 45.00983796 32.36197917 42.91156006 35.76551819 C39.06451826 40.29410682 35.19508165 43.00514838 29.890625 45.62109375 C29.1237738 46.01071793 28.35692261 46.4003421 27.5668335 46.80177307 C25.95383019 47.61533241 24.33673205 48.42081944 22.71582031 49.21850586 C20.25727227 50.43390491 17.8203769 51.68650558 15.3828125 52.94335938 C13.80324454 53.73409471 12.22254908 54.52258259 10.640625 55.30859375 C9.92360413 55.6803624 9.20658325 56.05213104 8.46783447 56.43516541 C3.03314361 59.0552926 -1.9861268 59.83071651 -8 59 C-11.66293172 56.86328983 -13.3791449 54.85234907 -15 51 C-15.28088379 48.93363953 -15.28088379 48.93363953 -15.32226562 46.7097168 C-15.34148071 45.87172043 -15.3606958 45.03372406 -15.38049316 44.17033386 C-15.38899292 43.27236588 -15.39749268 42.37439789 -15.40625 41.44921875 C-15.41765015 40.51705032 -15.42905029 39.5848819 -15.4407959 38.62446594 C-15.45966934 36.65341717 -15.47275335 34.68230567 -15.48046875 32.71118164 C-15.49986747 29.7080168 -15.56191871 26.70759975 -15.625 23.70507812 C-15.63806297 21.78647453 -15.64856278 19.86785142 -15.65625 17.94921875 C-15.6809436 17.05732346 -15.70563721 16.16542816 -15.7310791 15.24650574 C-15.69010093 9.46077959 -14.51347289 6.4648078 -10.48474121 2.27912903 C-7.27857053 -0.48303986 -4.04869305 -0.63517871 0 0 Z " fill="#040303" transform="translate(192,280)"/>
<path d="M0 0 C1.31929504 -0.01272446 2.63859009 -0.02544891 3.99786377 -0.03855896 C5.45829952 -0.03237661 6.91873353 -0.02577058 8.37916565 -0.01878357 C9.91842985 -0.02584148 11.4576871 -0.03458596 12.99693298 -0.04489136 C17.17676414 -0.06741035 21.35621709 -0.0644398 25.53608584 -0.05556989 C29.02524232 -0.05046276 32.51432754 -0.05775035 36.00347668 -0.06504196 C44.2347266 -0.0820491 52.46579118 -0.07846717 60.69703674 -0.06175232 C69.18936737 -0.0448303 77.68118403 -0.06066458 86.17345852 -0.0929752 C93.46446616 -0.11966462 100.75531373 -0.12694887 108.04636532 -0.11846012 C112.40107666 -0.11352894 116.75547872 -0.11575659 121.11015129 -0.13624763 C125.20533032 -0.15459474 129.2997697 -0.14865868 133.39490891 -0.12404823 C134.8973243 -0.11903712 136.39979595 -0.12253803 137.90216637 -0.13519669 C139.95483399 -0.15112297 142.00506453 -0.13618698 144.05761719 -0.11352539 C145.20558494 -0.11293908 146.35355268 -0.11235277 147.53630733 -0.1117487 C151.56780075 0.71462014 153.09426148 2.30514059 155.59230042 5.5146637 C155.59230042 8.97686375 155.42059474 11.31693587 153.42555904 14.20179176 C150.71528753 16.14272871 148.57076183 15.89237872 145.26016235 15.89561462 C144.29274893 15.90263458 144.29274893 15.90263458 143.3057918 15.90979636 C141.14075132 15.92177984 138.97633993 15.91227657 136.81129456 15.90284729 C135.2607079 15.90691157 133.71012415 15.91225263 132.1595459 15.91877747 C127.94464138 15.93247525 123.72995672 15.92714203 119.51504827 15.91764021 C115.1073161 15.91005497 110.699603 15.91708618 106.29187012 15.92179871 C98.88815424 15.92726015 91.48452807 15.92005506 84.08082581 15.90577698 C75.51874441 15.88945572 66.95687738 15.89473356 58.3948012 15.91125619 C51.04779889 15.92486718 43.70086115 15.92679244 36.35385031 15.91894019 C31.96402468 15.91426076 27.57429983 15.91364608 23.18448067 15.92354965 C19.05664469 15.93221122 14.92908516 15.92621236 10.80127907 15.90886688 C9.28554493 15.90489743 7.76978757 15.90604394 6.25406265 15.91265488 C4.18620091 15.9208429 2.11922715 15.91058328 0.05142212 15.89561462 C-1.68492194 15.89391801 -1.68492194 15.89391801 -3.45634365 15.89218712 C-6.7392688 15.47225094 -8.14298323 14.91119451 -10.40769958 12.5146637 C-11.09111667 7.13275415 -11.09111667 7.13275415 -10.40769958 4.5146637 C-7.24268621 0.45346965 -5.05560119 0.01236562 0 0 Z " fill="#040404" transform="translate(293.40769958496094,267.48533630371094)"/>
<path d="M0 0 C1.3038414 -0.00983414 2.6076828 -0.01966827 3.95103455 -0.02980042 C5.38894916 -0.02042914 6.82686116 -0.01064986 8.26477051 -0.00050354 C9.78447469 -0.00428803 11.30417543 -0.00978915 12.8238678 -0.01687622 C16.94582367 -0.03083133 21.06736215 -0.01966086 25.18929482 -0.00316501 C29.50445504 0.01069194 33.81959118 0.00422468 38.13476562 0.0007019 C45.3811312 -0.00199971 52.62733108 0.01147116 59.87365723 0.03465271 C68.24945413 0.06126218 76.62497402 0.06300939 85.0007987 0.05126435 C93.06059148 0.04048222 101.12028413 0.04667704 109.18006897 0.06081963 C112.60899728 0.06657566 116.03785223 0.06649976 119.46678162 0.06175423 C123.50520076 0.05697915 127.54331688 0.06710794 131.58167839 0.08870888 C133.06312475 0.09426971 134.54460027 0.09474848 136.02604866 0.08975601 C138.04935492 0.08379298 140.07269059 0.09815572 142.09594727 0.11352539 C143.79382763 0.11717023 143.79382763 0.11717023 145.52600861 0.12088871 C148.92286539 0.54838587 150.81329948 1.47384054 153.54797363 3.50120544 C154.96839184 6.34204186 154.86249636 8.35597822 154.54797363 11.50120544 C152.38260855 14.40540657 151.18831689 15.39317029 147.58100033 16.0017767 C146.41606328 16.00198598 145.25112623 16.00219526 144.05088806 16.00241089 C143.07500932 16.01071248 143.07500932 16.01071248 142.07941586 16.01918179 C139.9011465 16.03278669 137.72402334 16.01782167 135.54577637 16.00291443 C133.98356642 16.00669767 132.42135982 16.01219775 130.85916138 16.01928711 C126.61745409 16.03325741 122.37615171 16.02206159 118.13446689 16.0055759 C113.69824825 15.99173547 109.26205335 15.99818423 104.82582092 16.00170898 C97.37677476 16.00441163 89.92788968 15.99092993 82.47888184 15.96775818 C73.86165254 15.94113831 65.24469243 15.93940421 56.6274361 15.95114654 C48.34285242 15.96191748 40.05836629 15.95574329 31.77379036 15.94159126 C28.24552167 15.93582648 24.71732425 15.93591797 21.18905449 15.94065666 C17.03656992 15.94542142 12.88438098 15.93534585 8.73195267 15.91370201 C7.20612777 15.90812744 5.68027451 15.90767498 4.15444756 15.91265488 C2.0753265 15.91859069 -0.00288543 15.90613711 -2.08192444 15.8888855 C-3.24648446 15.8864556 -4.41104448 15.88402571 -5.6108942 15.88152218 C-8.45202637 15.50120544 -8.45202637 15.50120544 -10.31890774 14.22306919 C-11.91443122 11.79854455 -11.91431898 9.37912763 -12.04577637 6.53636169 C-10.3943121 0.87575062 -5.18556049 0.00095877 0 0 Z " fill="#060606" transform="translate(294.4520263671875,335.49879455566406)"/>
<path d="M0 0 C1.96838333 -0.01908669 1.96838333 -0.01908669 3.97653198 -0.03855896 C5.42389097 -0.03237702 6.87124819 -0.02577102 8.31860352 -0.01878357 C9.84816317 -0.02584352 11.37771583 -0.03458886 12.90725708 -0.04489136 C17.05603931 -0.06738549 21.20444006 -0.06444589 25.35326004 -0.05556989 C28.81761355 -0.05045888 32.28189544 -0.05775337 35.74624157 -0.06504196 C43.91853791 -0.08204063 52.09064753 -0.07847501 60.26293945 -0.06175232 C68.6933762 -0.04482449 77.12329541 -0.06067446 85.55367565 -0.0929752 C92.79374873 -0.11966415 100.03366063 -0.1269492 107.27377796 -0.11846012 C111.59717611 -0.11352962 115.92026274 -0.11575315 120.24362183 -0.13624763 C124.30844734 -0.15459447 128.37252769 -0.14865906 132.43731308 -0.12404823 C133.92844139 -0.11903736 135.41962639 -0.12253741 136.91070938 -0.13519669 C138.94709668 -0.15111714 140.98366468 -0.13316178 143.02001953 -0.11352539 C144.15931412 -0.11293908 145.2986087 -0.11235277 146.47242737 -0.1117487 C150.49036166 0.71683256 152.01794897 2.31709176 154.51000977 5.5146637 C154.51000977 8.97583664 154.33710153 11.31580458 152.34606171 14.20179176 C149.62374463 16.14838903 147.45629337 15.89239065 144.13317871 15.89561462 C143.48344731 15.9002946 142.83371591 15.90497457 142.16429567 15.90979636 C139.98310324 15.92178026 137.80253519 15.91227644 135.62133789 15.90284729 C134.05927666 15.90691151 132.4972183 15.91225254 130.93516541 15.91877747 C126.68933781 15.93247482 122.44372846 15.92714251 118.19789696 15.91764021 C113.75900042 15.91005611 109.32012284 15.91708574 104.88122559 15.92179871 C97.42623533 15.92725991 89.97133416 15.9200551 82.51635742 15.90577698 C73.89177259 15.88944975 65.26740051 15.894738 56.64282084 15.91125619 C49.24403004 15.92486069 41.84530337 15.92679581 34.44650412 15.91894019 C30.02485255 15.91425795 25.60330106 15.91365388 21.18165588 15.92354965 C17.02509645 15.932202 12.86881186 15.92622932 8.71228218 15.90886688 C7.18484008 15.90489274 5.65737494 15.9060519 4.12994194 15.91265488 C2.04859367 15.9208243 -0.03186779 15.91060603 -2.11315918 15.89561462 C-3.86194744 15.89391801 -3.86194744 15.89391801 -5.64606476 15.89218712 C-8.48999023 15.5146637 -8.48999023 15.5146637 -10.35729218 14.23694801 C-11.95204875 11.81209683 -11.95228607 9.39251618 -12.08374023 6.54981995 C-10.42788947 0.87417358 -5.19521877 0.01279965 0 0 Z " fill="#050505" transform="translate(294.489990234375,301.48533630371094)"/>
<path d="M0 0 C5.94 0 11.88 0 18 0 C18 95.37 18 190.74 18 289 C17.67 289 17.34 289 17 289 C17 217.06 17 145.12 17 71 C11.39 71 5.78 71 0 71 C0 47.57 0 24.14 0 0 Z " fill="#D0A446" transform="translate(65,103)"/>
<path d="M0 0 C3.86258739 0.86908216 5.11960881 2.40276017 7.5 5.5625 C8.1946809 9.23007571 8.08204983 12.82954991 7.98828125 16.55078125 C7.97766914 18.13828438 7.97766914 18.13828438 7.96684265 19.75785828 C7.93890219 23.13096437 7.87616121 26.50239746 7.8125 29.875 C7.78741682 32.16468953 7.76460369 34.45440514 7.74414062 36.74414062 C7.68907681 42.35082915 7.6054533 47.95654504 7.5 53.5625 C8.94632813 53.49289063 8.94632813 53.49289063 10.421875 53.421875 C11.68515625 53.38578125 12.9484375 53.3496875 14.25 53.3125 C16.12945312 53.24289063 16.12945312 53.24289063 18.046875 53.171875 C21.5 53.5625 21.5 53.5625 23.91796875 55.39453125 C25.5 57.5625 25.5 57.5625 26.0625 60.5 C25.27300203 64.79837781 24.02536227 65.96281567 20.5 68.5625 C16.65435044 69.30685582 12.90581392 69.26064258 9 69.1875 C7.45119141 69.21650391 7.45119141 69.21650391 5.87109375 69.24609375 C4.37255859 69.23642578 4.37255859 69.23642578 2.84375 69.2265625 C1.48540039 69.21810303 1.48540039 69.21810303 0.09960938 69.20947266 C-3.93535748 68.20527824 -5.15961708 67.04719092 -7.5 63.5625 C-8.25091519 59.1470032 -8.20019169 54.77853006 -8.1640625 50.30859375 C-8.16884613 49.01558853 -8.17362976 47.72258331 -8.17855835 46.39039612 C-8.18591347 43.65912881 -8.17526877 40.92868144 -8.15185547 38.19750977 C-8.12333729 34.70097738 -8.13979525 31.2063614 -8.16971779 27.70989895 C-8.19215117 24.36764432 -8.17643694 21.0259028 -8.1640625 17.68359375 C-8.17418365 16.42937119 -8.18430481 15.17514862 -8.19473267 13.88291931 C-8.17897186 12.71813553 -8.16321106 11.55335175 -8.14697266 10.35327148 C-8.14299469 9.32910629 -8.13901672 8.3049411 -8.13491821 7.2497406 C-7.11752465 2.94370363 -4.22422371 0.95045033 0 0 Z " fill="#020303" transform="translate(245.5,139.4375)"/>
<path d="M0 0 C4.4684084 2.48538692 8.56672245 5.03953924 10.76953125 9.79296875 C12.41704743 16.0258796 12.52681594 22.59406661 9.390625 28.34375 C5.79229835 33.19895694 0.92892906 36.28930828 -5.04296875 37.3125 C-11.38446485 37.56915414 -15.53822464 35.74218171 -20.359375 31.59375 C-25.02671198 26.16954756 -26.29757096 21.73063784 -26.0859375 14.66015625 C-25.19136217 8.71038639 -22.19141058 5.09148775 -17.546875 1.46875 C-11.7700231 -1.67084342 -6.17874949 -2.52931266 0 0 Z " fill="#9CA9B6" transform="translate(317.671875,156.09375)"/>
<path d="M0 0 C1.05960938 0.00676758 1.05960938 0.00676758 2.140625 0.01367188 C3.88545275 0.02546125 5.630237 0.04339676 7.375 0.0625 C6.8905542 1.15433594 6.4061084 2.24617188 5.90698242 3.37109375 C3.95360969 8.60553851 3.89913777 13.58778085 3.86328125 19.125 C3.84533005 20.15689453 3.82737885 21.18878906 3.80888367 22.25195312 C3.75504544 25.52209484 3.72096978 28.79209281 3.6875 32.0625 C3.65430358 34.29038447 3.61981179 36.51825004 3.58398438 38.74609375 C3.49691466 44.18491351 3.43661826 49.62309517 3.375 55.0625 C11.295 55.0625 19.215 55.0625 27.375 55.0625 C27.375 55.3925 27.375 55.7225 27.375 56.0625 C13.185 56.0625 -1.005 56.0625 -15.625 56.0625 C-15.76302026 49.35318184 -15.88237622 42.64881766 -15.95458984 35.93920898 C-15.98470005 33.65876547 -16.025598 31.37843718 -16.07763672 29.09838867 C-16.15070271 25.81400079 -16.18451502 22.53114813 -16.2109375 19.24609375 C-16.24190521 18.23228134 -16.27287292 17.21846893 -16.30477905 16.17393494 C-16.3076699 10.04717342 -15.45785465 6.71614039 -11.11221313 2.29823303 C-7.68627875 -0.54839344 -4.23336957 -0.05076919 0 0 Z " fill="#E9AF44" transform="translate(30.625,110.9375)"/>
<path d="M0 0 C1.27230469 0.01804687 2.54460937 0.03609375 3.85546875 0.0546875 C5.31919922 0.08949219 5.31919922 0.08949219 6.8125 0.125 C6.503125 0.888125 6.19375 1.65125 5.875 2.4375 C4.44158162 6.06320531 3.67995097 8.90225554 3.60717773 12.7800293 C3.58723251 13.72077805 3.56728729 14.66152679 3.54673767 15.63078308 C3.52166893 17.14965874 3.52166893 17.14965874 3.49609375 18.69921875 C3.47531265 19.73818802 3.45453156 20.77715729 3.43312073 21.84761047 C3.36769344 25.16917253 3.30877179 28.49081416 3.25 31.8125 C3.20680831 34.0631593 3.16319381 36.31381052 3.11914062 38.56445312 C3.01201897 44.08455369 2.91073211 49.60473437 2.8125 55.125 C-3.1275 55.125 -9.0675 55.125 -15.1875 55.125 C-15.31117562 48.3806832 -15.40187739 41.63702762 -15.4621582 34.8918457 C-15.48728928 32.59778342 -15.52139969 30.3038011 -15.56469727 28.01000977 C-15.62540832 24.71089951 -15.65372437 21.41284854 -15.67578125 18.11328125 C-15.70158768 17.08914627 -15.7273941 16.06501129 -15.75398254 15.00984192 C-15.7567899 7.86892672 -15.7567899 7.86892672 -12.84448242 4.06323242 C-8.0841032 0.59060074 -5.91319041 -0.10849891 0 0 Z " fill="#74CDF8" transform="translate(113.1875,14.875)"/>
<path d="M0 0 C3.01125 1.423125 6.0225 2.84625 9.125 4.3125 C10.06230957 4.75505127 10.99961914 5.19760254 11.96533203 5.65356445 C16.33557362 7.72140081 20.68697953 9.81520766 25 12 C21.48633319 16.15846205 17.35363662 17.99141484 12.5 20.1875 C11.74074219 20.54263672 10.98148438 20.89777344 10.19921875 21.26367188 C6.75398795 22.85354633 3.71108308 24.07222923 0 25 C0 16.75 0 8.5 0 0 Z " fill="#E4E9EE" transform="translate(192,297)"/>
<path d="M0 0 C1.97806641 -0.02900391 1.97806641 -0.02900391 3.99609375 -0.05859375 C7.5625 0.4375 7.5625 0.4375 10.00390625 2.27734375 C11.5625 4.4375 11.5625 4.4375 12.0625 7.4375 C11.45695555 11.07076668 10.4066085 12.17894325 7.5625 14.4375 C3.35840733 16.53954634 -1.87003793 15.96591649 -6.4375 15.4375 C-9.75 13.375 -9.75 13.375 -11.4375 10.4375 C-11.4375 7.00124579 -11.2372481 4.6641599 -9.33984375 1.75390625 C-6.41867721 -0.267517 -3.42444295 -0.03611589 0 0 Z " fill="#050809" transform="translate(131.4375,37.5625)"/>
<path d="M0 0 C1.3096875 -0.02191406 2.619375 -0.04382812 3.96875 -0.06640625 C7.5 0.5625 7.5 0.5625 9.96484375 2.90625 C11.5 5.5625 11.5 5.5625 11.5625 8.625 C10.14066402 12.5559583 9.26120108 13.64502494 5.5 15.5625 C-0.20919136 16.40742873 -4.83467675 16.6513652 -9.75 13.4375 C-11.81228623 10.04945834 -12.24523902 8.45430376 -11.5 4.5625 C-8.2432295 0.09560779 -5.3509169 -0.00526665 0 0 Z " fill="#050709" transform="translate(206.5,37.4375)"/>
<path d="M0 0 C1.8253125 -0.01546875 1.8253125 -0.01546875 3.6875 -0.03125 C7.52517647 0.58422641 8.71084122 1.41607216 11 4.5 C11.74523902 8.39180376 11.31228623 9.98695834 9.25 13.375 C4.33952882 16.5856927 -0.29880088 16.47644847 -6 15.5 C-9.25 13.375 -9.25 13.375 -11 10.5 C-11.5625 7.4375 -11.5625 7.4375 -11 4.5 C-7.80873726 0.20076828 -5.21263135 -0.04417484 0 0 Z " fill="#040607" transform="translate(169,37.5)"/>
<path d="M0 0 C1.97806641 -0.02900391 1.97806641 -0.02900391 3.99609375 -0.05859375 C7.5625 0.4375 7.5625 0.4375 10.00390625 2.27734375 C11.5625 4.4375 11.5625 4.4375 12.0625 7.4375 C11.4342778 11.20683319 10.59443735 12.14778091 7.5625 14.4375 C3.99609375 14.96875 3.99609375 14.96875 0 14.9375 C-1.00836914 14.96070313 -1.00836914 14.96070313 -2.03710938 14.984375 C-5.23822507 14.95894409 -6.99513679 14.84960094 -9.37890625 12.62890625 C-10.92772968 9.42267028 -10.819829 6.94218251 -10.4375 3.4375 C-7.97003836 -0.49587059 -4.20165188 -0.04431272 0 0 Z " fill="#030201" transform="translate(48.4375,133.5625)"/>
<path d="M0 0 C12.35380117 -0.49415205 12.35380117 -0.49415205 15.390625 1.828125 C17 4 17 4 17.5 7 C16.87583536 10.74498782 15.99314797 11.71112214 13 14 C8.60786271 14.53045136 4.44112074 14.17764483 0 14 C0 9.38 0 4.76 0 0 Z " fill="#94A0AD" transform="translate(192,179)"/>
<path d="M0 0 C1.60875 -0.04125 3.2175 -0.0825 4.875 -0.125 C5.77992188 -0.14820313 6.68484375 -0.17140625 7.6171875 -0.1953125 C10 0 10 0 12 2 C12.3125 5 12.3125 5 12 8 C7.7975546 10.80163026 4.99895065 10.14489712 0 10 C0 6.7 0 3.4 0 0 Z " fill="#8F9BA8" transform="translate(192,155)"/>
</svg>
